<svg width="60" height="60" fill="none" xmlns="http://www.w3.org/2000/svg"><path fill-rule="evenodd" clip-rule="evenodd" d="M34.59 5.824a1.875 1.875 0 00-2.516.836l-11.25 22.5a1.875 1.875 0 000 1.68l11.25 22.5a1.873 1.873 0 002.523.85 1.874 1.874 0 00.83-2.53L24.6 30 35.427 8.34a1.875 1.875 0 00-.837-2.516z" fill="#000"/><path fill-rule="evenodd" clip-rule="evenodd" d="M34.59 5.824a1.875 1.875 0 00-2.516.836l-11.25 22.5a1.875 1.875 0 000 1.68l11.25 22.5a1.873 1.873 0 002.523.85 1.874 1.874 0 00.83-2.53L24.6 30 35.427 8.34a1.875 1.875 0 00-.837-2.516z" fill="#fff"/></svg>