<svg width="35" height="29" fill="none" xmlns="http://www.w3.org/2000/svg"><path d="M10.994 28.812c13.209 0 20.434-10.944 20.434-20.418 0-.306 0-.617-.013-.923A14.624 14.624 0 0035 3.748c-1.314.579-2.706.96-4.132 1.133A7.22 7.22 0 0034.033.906a14.29 14.29 0 01-4.565 1.735 7.188 7.188 0 00-12.241 6.55A20.398 20.398 0 012.424 1.688a7.195 7.195 0 002.227 9.586 7.27 7.27 0 01-3.251-.893v.099a7.192 7.192 0 005.758 7.04 7.004 7.004 0 01-1.893.25c-.45.002-.9-.04-1.343-.124a7.182 7.182 0 006.71 4.981 14.411 14.411 0 01-8.926 3.078c-.57.002-1.14-.03-1.706-.099a20.44 20.44 0 0010.994 3.205z" fill="currentColor"/></svg>