<?xml version="1.0" encoding="utf-8"?><svg viewBox="0 0 70 70" xmlns="http://www.w3.org/2000/svg" xmlns:xlink="http://www.w3.org/1999/xlink"><style>:root>svg{display:none}:root>svg:target{display:block}</style><svg fill="none" viewBox="0 0 60 60" id="icon-arrow-next" xmlns="http://www.w3.org/2000/svg"><path fill-rule="evenodd" clip-rule="evenodd" d="M25.41 5.824a1.875 1.875 0 012.516.836l11.25 22.5a1.875 1.875 0 010 1.68l-11.25 22.5a1.873 1.873 0 01-2.523.85 1.874 1.874 0 01-.83-2.53L35.4 30 24.573 8.34a1.875 1.875 0 01.837-2.516z" fill="#000"/><path fill-rule="evenodd" clip-rule="evenodd" d="M25.41 5.824a1.875 1.875 0 012.516.836l11.25 22.5a1.875 1.875 0 010 1.68l-11.25 22.5a1.873 1.873 0 01-2.523.85 1.874 1.874 0 01-.83-2.53L35.4 30 24.573 8.34a1.875 1.875 0 01.837-2.516z" fill="#fff"/></svg><svg fill="none" viewBox="0 0 60 60" id="icon-arrow-prev" xmlns="http://www.w3.org/2000/svg"><path fill-rule="evenodd" clip-rule="evenodd" d="M34.59 5.824a1.875 1.875 0 00-2.516.836l-11.25 22.5a1.875 1.875 0 000 1.68l11.25 22.5a1.873 1.873 0 002.523.85 1.874 1.874 0 00.83-2.53L24.6 30 35.427 8.34a1.875 1.875 0 00-.837-2.516z" fill="#000"/><path fill-rule="evenodd" clip-rule="evenodd" d="M34.59 5.824a1.875 1.875 0 00-2.516.836l-11.25 22.5a1.875 1.875 0 000 1.68l11.25 22.5a1.873 1.873 0 002.523.85 1.874 1.874 0 00.83-2.53L24.6 30 35.427 8.34a1.875 1.875 0 00-.837-2.516z" fill="#fff"/></svg><svg fill="none" viewBox="0 0 26 26" id="icon-close" xmlns="http://www.w3.org/2000/svg"><path d="M3.486 4.638a.814.814 0 011.15-1.15L13 11.85l8.362-8.364a.814.814 0 011.15 1.15L14.149 13l8.364 8.362a.812.812 0 11-1.15 1.15l-8.363-8.363-8.362 8.364a.813.813 0 11-1.15-1.15L11.85 13 3.486 4.638z" fill="#fff"/></svg><svg fill="none" viewBox="0 0 35 35" id="icon-facebook" xmlns="http://www.w3.org/2000/svg"><path d="M35 17.607C35 7.882 27.166-.002 17.5-.002 7.832 0-.004 7.882-.004 17.61c0 8.787 6.4 16.071 14.766 17.392V22.698h-4.44V17.61h4.444v-3.883c0-4.412 2.614-6.85 6.61-6.85 1.917 0 3.918.344 3.918.344v4.331h-2.207c-2.172 0-2.85 1.359-2.85 2.752v3.303h4.852l-.774 5.088h-4.08V35C28.6 33.68 35 26.395 35 17.607z" fill="currentColor"/></svg><svg fill="none" viewBox="0 0 35 35" id="icon-instagram" xmlns="http://www.w3.org/2000/svg"><path d="M17.5 0c-4.75 0-5.346.022-7.212.105-1.866.088-3.137.38-4.25.814a8.568 8.568 0 00-3.1 2.019 8.59 8.59 0 00-2.02 3.1C.487 7.147.19 8.421.106 10.28.022 12.151 0 12.747 0 17.502c0 4.751.022 5.346.105 7.212.088 1.864.38 3.135.814 4.248a8.596 8.596 0 002.019 3.1 8.54 8.54 0 003.097 2.02c1.116.432 2.385.728 4.248.813 1.869.083 2.464.105 7.217.105s5.346-.022 7.214-.105c1.862-.088 3.137-.38 4.25-.814a8.565 8.565 0 003.098-2.019 8.595 8.595 0 002.02-3.1c.43-1.113.725-2.384.813-4.248.083-1.866.105-2.46.105-7.214 0-4.753-.022-5.348-.105-7.217-.088-1.861-.383-3.134-.814-4.245a8.587 8.587 0 00-2.019-3.1 8.555 8.555 0 00-3.1-2.02C27.848.487 26.575.19 24.712.106 22.844.022 22.252 0 17.496 0h.006-.002zm-1.568 3.154h1.57c4.673 0 5.226.016 7.07.101 1.706.077 2.634.363 3.25.602a5.43 5.43 0 012.013 1.31 5.406 5.406 0 011.308 2.012c.241.615.525 1.543.602 3.249.085 1.844.103 2.397.103 7.068 0 4.67-.018 5.226-.103 7.07-.077 1.706-.363 2.631-.602 3.248a5.402 5.402 0 01-1.31 2.01 5.406 5.406 0 01-2.012 1.308c-.613.241-1.54.525-3.249.604-1.844.083-2.397.103-7.07.103-4.672 0-5.228-.02-7.072-.103-1.706-.079-2.632-.363-3.248-.604a5.422 5.422 0 01-2.013-1.308 5.425 5.425 0 01-1.312-2.012c-.239-.615-.525-1.542-.602-3.249-.083-1.844-.1-2.397-.1-7.072 0-4.672.017-5.223.1-7.068.079-1.706.363-2.633.604-3.25a5.43 5.43 0 011.31-2.013 5.407 5.407 0 012.013-1.308c.616-.24 1.542-.525 3.248-.604 1.614-.074 2.24-.096 5.502-.098v.004zm10.91 2.905a2.1 2.1 0 100 4.2 2.1 2.1 0 000-4.2zm-9.34 2.455a8.989 8.989 0 10-.28 17.975 8.989 8.989 0 00.28-17.975zm0 3.152a5.834 5.834 0 110 11.668 5.834 5.834 0 010-11.668z" fill="currentColor"/></svg><svg fill="none" viewBox="0 0 70 70" id="icon-play" xmlns="http://www.w3.org/2000/svg"><circle opacity=".8" cx="35" cy="35" r="35" fill="#fff"/><path d="M50.79 32.402c2 1.154 2 4.041 0 5.196L29.355 49.973c-2 1.155-4.5-.288-4.5-2.598v-24.75c0-2.31 2.5-3.753 4.5-2.599L50.79 32.402z" fill="#CF2542"/></svg><svg fill="none" viewBox="0 0 35 29" id="icon-twitter" xmlns="http://www.w3.org/2000/svg"><path d="M10.994 28.812c13.209 0 20.434-10.944 20.434-20.418 0-.306 0-.617-.013-.923A14.624 14.624 0 0035 3.748c-1.314.579-2.706.96-4.132 1.133A7.22 7.22 0 0034.033.906a14.29 14.29 0 01-4.565 1.735 7.188 7.188 0 00-12.241 6.55A20.398 20.398 0 012.424 1.688a7.195 7.195 0 002.227 9.586 7.27 7.27 0 01-3.251-.893v.099a7.192 7.192 0 005.758 7.04 7.004 7.004 0 01-1.893.25c-.45.002-.9-.04-1.343-.124a7.182 7.182 0 006.71 4.981 14.411 14.411 0 01-8.926 3.078c-.57.002-1.14-.03-1.706-.099a20.44 20.44 0 0010.994 3.205z" fill="currentColor"/></svg></svg>