<svg width="186" height="176" fill="none" xmlns="http://www.w3.org/2000/svg"><path d="M63.17 122.197s3.51 4.111 4.076 4.383c.566.273 5.73 2.042 5.73 2.042.48.043.716 3.194-.387 3.173-.38 0-5.694-1.103-10.228-1.819-1.304-.394-8.417-2.866-8.417-2.866a5.643 5.643 0 01.673-3.71c.51-.931 3.18-2.285 3.18-2.285l5.373 1.082z" fill="#47545B"/><path d="M63.17 122.197s3.51 4.111 4.076 4.383c.566.273 5.73 2.042 5.73 2.042.48.043.716 3.194-.387 3.173-.38 0-5.694-1.103-10.228-1.819-1.304-.394-8.417-2.866-8.417-2.866a5.643 5.643 0 01.673-3.71c.51-.931 3.18-2.285 3.18-2.285l5.373 1.082z" fill="#9F9EA0"/><path d="M63.17 122.161s3.524 4.147 4.09 4.42c.566.272 5.73 2.055 5.73 2.055.488.05.717 3.224-.393 3.202-.373 0-5.73-1.11-10.265-1.834-1.31-.394-8.452-2.908-8.452-2.908a5.73 5.73 0 01.68-3.746c.509-.938 3.195-2.299 3.195-2.299l5.415 1.11z" stroke="#fff" stroke-width=".49" stroke-miterlimit="3.86"/><path d="M96.907 94.605s-31.803 27.083-33.322 28.816c-1.518 1.734-3.044 1.104-4.348.101-1.303-1.003-2.793-1.891-.179-4.47 2.951-2.865 9.44-9.641 12.478-12.8 2.564-2.665 4.147-7.471 6.21-9.799 5.58-6.296 14.47-8.252 17.191-4.412.59.91 1.256 1.768 1.992 2.564" fill="#47545B"/><path d="M96.907 94.605s-31.803 27.083-33.322 28.816c-1.518 1.734-3.044 1.104-4.348.101-1.303-1.003-2.793-1.891-.179-4.47 2.951-2.865 9.44-9.641 12.478-12.8 2.564-2.665 4.147-7.471 6.21-9.799 5.58-6.296 14.47-8.252 17.191-4.412.59.91 1.256 1.768 1.992 2.564" fill="#9F9EA0"/><path d="M96.972 94.576s-31.897 27.148-33.408 28.881c-1.511 1.734-3.059 1.103-4.362.101-1.304-1.003-2.8-1.899-.186-4.477 2.958-2.908 9.469-9.663 12.513-12.836 2.572-2.665 4.162-7.478 6.232-9.814 5.594-6.31 14.505-8.273 17.191-4.426a19.042 19.042 0 002.02 2.571v0z" stroke="#fff" stroke-width=".49" stroke-miterlimit="3.86"/><path d="M58.571 119.217a3.29 3.29 0 013.541-.901 3.288 3.288 0 11-3.297 5.542 3.258 3.258 0 01-1.089-2.27 3.271 3.271 0 01.845-2.371z" fill="#47545B"/><path d="M58.571 119.217a3.29 3.29 0 013.541-.901 3.288 3.288 0 11-3.297 5.542 3.258 3.258 0 01-1.089-2.27 3.271 3.271 0 01.845-2.371z" fill="#9F9EA0"/><path d="M58.57 119.188a3.322 3.322 0 113.905 5.223 3.33 3.33 0 01-4.434-1.562 3.315 3.315 0 01.53-3.661v0z" stroke="#fff" stroke-width=".49" stroke-miterlimit="3.86"/><path d="M62.21 62.565c16.74 6.576 23.294 14.054 30.342 19.57 4.37 3.409 5.072 5.07 4.047 7.75-1.024 2.679-4.226 3.015-6.246 2.242-4.72-1.798-17.356-3.374-30.8-13.058-2.765-1.992-6.949-2.15-8.052-9.083-1.203-7.593 7.228-8.94 10.702-7.42" fill="#47545B"/><path d="M62.21 62.565c16.74 6.576 23.294 14.054 30.342 19.57 4.37 3.409 5.072 5.07 4.047 7.75-1.024 2.679-4.226 3.015-6.246 2.242-4.72-1.798-17.356-3.374-30.8-13.058-2.765-1.992-6.949-2.15-8.052-9.083-1.203-7.593 7.228-8.94 10.702-7.42" fill="#9F9EA0"/><path d="M62.196 62.522c16.761 6.598 23.323 14.097 30.392 19.62 4.377 3.424 5.079 5.093 4.055 7.772-1.025 2.678-4.24 3.03-6.268 2.256-4.72-1.805-17.377-3.381-30.844-13.094-2.764-1.998-6.962-2.149-8.058-9.104-1.21-7.621 7.242-8.968 10.723-7.45z" stroke="#fff" stroke-width=".49" stroke-miterlimit="3.86"/><path d="M89.129 90.415a4.713 4.713 0 113.192 4.14 4.706 4.706 0 01-3.192-4.14z" fill="#47545B"/><path d="M89.129 90.415a4.713 4.713 0 113.192 4.14 4.706 4.706 0 01-3.192-4.14z" fill="#9F9EA0"/><path d="M89.093 90.415a4.75 4.75 0 115.071 4.42 4.737 4.737 0 01-5.071-4.42v0z" stroke="#fff" stroke-width=".49" stroke-miterlimit="3.86"/><path d="M6.977 175.324l170.298-.107" stroke="#9F9EA0" stroke-width=".69" stroke-miterlimit="3.86"/><path d="M93.326 158.785l-25.3-24.225a.727.727 0 011.003-1.053l25.3 24.225a.732.732 0 01.177.788.719.719 0 01-.384.403.734.734 0 01-.556.014.72.72 0 01-.24-.152z" fill="#9F9EA0"/><path d="M93.326 158.785l-25.3-24.225a.727.727 0 011.003-1.053l25.3 24.225a.732.732 0 01.177.788.719.719 0 01-.384.403.734.734 0 01-.556.014.72.72 0 01-.24-.152z" fill="#fff"/><path d="M79.796 146.479a1.595 1.595 0 011.573-1.905 1.594 1.594 0 011.473.993 1.598 1.598 0 11-3.046.912z" fill="#9F9EA0"/><path d="M79.2 136.422a10.154 10.154 0 0110.41 4.353 10.146 10.146 0 01-.044 11.282 10.148 10.148 0 01-10.442 4.272 10.15 10.15 0 01.077-19.907zm.251 1.276a8.844 8.844 0 00-3.26 16.016 8.843 8.843 0 009.829.045 8.846 8.846 0 00-6.569-16.061z" fill="#9F9EA0"/><path d="M79.2 136.422a10.154 10.154 0 0110.41 4.353 10.146 10.146 0 01-.044 11.282 10.148 10.148 0 01-10.442 4.272 10.15 10.15 0 01.077-19.907zm.251 1.276a8.844 8.844 0 00-3.26 16.016 8.843 8.843 0 009.829.045 8.846 8.846 0 00-6.569-16.061z" fill="#fff"/><path d="M79.738 146.522a1.595 1.595 0 011.573-1.905 1.594 1.594 0 011.473.993 1.597 1.597 0 01-1.177 2.173 1.595 1.595 0 01-1.198-.239 1.587 1.587 0 01-.671-1.022zm-43.207-44.603a36.531 36.531 0 11.002 73.062 36.531 36.531 0 01-.002-73.062zm0 2.922a33.597 33.597 0 00-32.949 40.148 33.593 33.593 0 0060.881 12.11 33.591 33.591 0 00-4.177-42.418 33.595 33.595 0 00-23.755-9.84z" fill="#9F9EA0"/><path d="M36.531 101.919a36.531 36.531 0 11.002 73.062 36.531 36.531 0 01-.002-73.062zm0 2.922a33.597 33.597 0 00-32.949 40.148 33.593 33.593 0 0060.881 12.11 33.591 33.591 0 00-4.177-42.418 33.595 33.595 0 00-23.755-9.84z" fill="#fff"/><path d="M36.531 101.919a36.531 36.531 0 11.002 73.062 36.531 36.531 0 01-.002-73.062zm0 2.922a33.597 33.597 0 00-32.949 40.148 33.593 33.593 0 0060.881 12.11 33.591 33.591 0 00-4.177-42.418 33.595 33.595 0 00-23.755-9.84z" fill="#CF2542"/><path d="M148.824 101.933a36.528 36.528 0 0135.829 43.658 36.534 36.534 0 01-49.809 26.623 36.528 36.528 0 01-22.551-33.75 36.532 36.532 0 0136.531-36.531zm0 2.922a33.592 33.592 0 00-31.037 20.738 33.595 33.595 0 1031.037-20.738z" fill="#9F9EA0"/><path d="M148.824 101.933a36.528 36.528 0 0135.829 43.658 36.534 36.534 0 01-49.809 26.623 36.528 36.528 0 01-22.551-33.75 36.532 36.532 0 0136.531-36.531zm0 2.922a33.592 33.592 0 00-31.037 20.738 33.595 33.595 0 1031.037-20.738z" fill="#fff"/><path d="M148.824 101.933a36.528 36.528 0 0135.829 43.658 36.534 36.534 0 01-49.809 26.623 36.528 36.528 0 01-22.551-33.75 36.532 36.532 0 0136.531-36.531zm0 2.922a33.592 33.592 0 00-31.037 20.738 33.595 33.595 0 1031.037-20.738z" fill="#CF2542"/><path d="M124.155 84.04a41.547 41.547 0 00-.673-3.582c-.308-1.31-.953-3.13-.953-3.13s-.329-.652 1.182-.652c1.239 0 7.629-.358 9.713-.501a3.458 3.458 0 013.259-2.314c1.92 0 3.747 2.944 3.747 4.857 0 .673-13.381 1.618-13.381 1.618l.573 2.493-3.467 1.21z" fill="#9F9EA0"/><path d="M124.112 84.111c-.079-.523-.279-1.862-.681-3.581-.315-1.332-.959-3.174-.959-3.174s-.33-.658 1.189-.658c1.246 0 7.678-.366 9.77-.516a3.495 3.495 0 013.288-2.335c1.927 0 3.767 2.972 3.767 4.913 0 .717-13.466 1.648-13.466 1.648l.573 2.521-3.481 1.182z" fill="#fff"/><path d="M124.112 84.111c-.079-.523-.279-1.862-.681-3.581-.315-1.332-.959-3.174-.959-3.174s-.33-.658 1.189-.658c1.246 0 7.678-.366 9.77-.516a3.495 3.495 0 013.288-2.335c1.927 0 3.767 2.972 3.767 4.913 0 .717-13.466 1.648-13.466 1.648l.573 2.521-3.481 1.182z" fill="#CF2542"/><path d="M124.112 84.111c-.079-.523-.279-1.862-.681-3.581-.315-1.332-.959-3.174-.959-3.174s-.33-.658 1.189-.658c1.246 0 7.678-.366 9.77-.516a3.495 3.495 0 013.288-2.335c1.927 0 3.767 2.972 3.767 4.913 0 .717-13.466 1.648-13.466 1.648l.573 2.521-3.481 1.182z" stroke="#fff" stroke-width=".68" stroke-miterlimit="3.86"/><path d="M79.036 145.348a2.41 2.41 0 011.486-2.224 2.407 2.407 0 11.92 4.63 2.395 2.395 0 01-2.226-1.483 2.393 2.393 0 01-.18-.923z" fill="#9F9EA0"/><path d="M78.972 145.347a2.468 2.468 0 011.52-2.288 2.468 2.468 0 012.696.531 2.474 2.474 0 01-.371 3.805 2.477 2.477 0 01-3.657-1.103 2.461 2.461 0 01-.188-.945z" stroke="#fff" stroke-width=".68" stroke-miterlimit="3.86"/><path d="M49.438 71.755c1.576 0 2.092.402 8.818.287 6.726-.115 13.359-1.963 13.99 3.674.064.602 3.022-1.124-2.243-.98-5.916.157-3.746.758-8.044 2.291-3.581 1.275-3.438 1.87-5.085 1.34 0 0-2.185-2.794-8.84-4.298-1.468-.33-1.03-.895-.601-1.526.43-.63 1.54-.716 2.005-.759" fill="#9F9EA0"/><path d="M49.438 71.755c1.576 0 2.092.402 8.818.287 6.726-.115 13.359-1.963 13.99 3.674.064.602 3.022-1.124-2.243-.98-5.916.157-3.746.758-8.044 2.291-3.581 1.275-3.438 1.87-5.085 1.34 0 0-2.185-2.794-8.84-4.298-1.468-.33-1.03-.895-.601-1.526.43-.63 1.54-.716 2.005-.759" fill="#fff"/><path d="M49.438 71.755c1.576 0 2.092.402 8.818.287 6.726-.115 13.359-1.963 13.99 3.674.064.602 3.022-1.124-2.243-.98-5.916.157-3.746.758-8.044 2.291-3.581 1.275-3.438 1.87-5.085 1.34 0 0-2.185-2.794-8.84-4.298-1.468-.33-1.03-.895-.601-1.526.43-.63 1.54-.716 2.005-.759" fill="#CF2542"/><path d="M77.833 146.214a3.583 3.583 0 012.21-3.309 3.579 3.579 0 014.68 4.68 3.58 3.58 0 01-5.841 1.162 3.583 3.583 0 01-1.049-2.533z" fill="#9F9EA0"/><path d="M77.833 146.214a3.583 3.583 0 012.21-3.309 3.579 3.579 0 014.68 4.68 3.58 3.58 0 01-5.841 1.162 3.583 3.583 0 01-1.049-2.533z" fill="#fff"/><path d="M39.503 136.967l40.113 7.478-11.576-41.696-28.809 33.917.272.301zm86.149-46.71c-.05 0-40.177 6.447-52.633 8.395-1.655.258-2.15-.265-2.1 1.11L82.56 141.4l43.845-48.514a23.18 23.18 0 00-.752-2.65m-60.634 1.733l3.502-1.21.781 2.721c.716 1.433 1.433 1.555 1.433 1.555l53.22-8.38s.387 0 .451-.53l-.308-.918 4.348-1.518.445 1.296a5.53 5.53 0 00.35 2.715l2.866 8.803c.415 1.282 1.01 1.433 1.01 1.433l.515 1.325-4.663 1.633a4.405 4.405 0 01-.114-1.067 202.452 202.452 0 00-.573-1.812L84.107 147.13l-1.49 1.261-43.852-9.047s-1.282-2.865-2.077-2.865c-.795 0-.05-.151-.05-.151s29.812-35.922 29.812-36.08a2.559 2.559 0 00.38-2.041l-1.812-6.239zm68.721 8.596c.136.558-.466 1.346.537 3.416.487 1.046 14.512 31.517 14.512 31.517.752 1.347.545 2.815 0 3.181-1.518.995-2.958-1.003-2.958-1.003l-16.346-31.653c-.53-1.003-.537-3.395-.494-3.703l4.749-1.755z" fill="#9F9EA0"/><path d="M39.503 136.967l40.113 7.478-11.576-41.696-28.809 33.917.272.301zm86.149-46.71c-.05 0-40.177 6.447-52.633 8.395-1.655.258-2.15-.265-2.1 1.11L82.56 141.4l43.845-48.514a23.18 23.18 0 00-.752-2.65m-60.634 1.733l3.502-1.21.781 2.721c.716 1.433 1.433 1.555 1.433 1.555l53.22-8.38s.387 0 .451-.53l-.308-.918 4.348-1.518.445 1.296a5.53 5.53 0 00.35 2.715l2.866 8.803c.415 1.282 1.01 1.433 1.01 1.433l.515 1.325-4.663 1.633a4.405 4.405 0 01-.114-1.067 202.452 202.452 0 00-.573-1.812L84.107 147.13l-1.49 1.261-43.852-9.047s-1.282-2.865-2.077-2.865c-.795 0-.05-.151-.05-.151s29.812-35.922 29.812-36.08a2.559 2.559 0 00.38-2.041l-1.812-6.239zm68.721 8.596c.136.558-.466 1.346.537 3.416.487 1.046 14.512 31.517 14.512 31.517.752 1.347.545 2.815 0 3.181-1.518.995-2.958-1.003-2.958-1.003l-16.346-31.653c-.53-1.003-.537-3.395-.494-3.703l4.749-1.755z" fill="#fff"/><path d="M39.503 136.967l40.113 7.478-11.576-41.696-28.809 33.917.272.301zm86.149-46.71c-.05 0-40.177 6.447-52.633 8.395-1.655.258-2.15-.265-2.1 1.11L82.56 141.4l43.845-48.514a23.18 23.18 0 00-.752-2.65m-60.634 1.733l3.502-1.21.781 2.721c.716 1.433 1.433 1.555 1.433 1.555l53.22-8.38s.387 0 .451-.53l-.308-.918 4.348-1.518.445 1.296a5.53 5.53 0 00.35 2.715l2.866 8.803c.415 1.282 1.01 1.433 1.01 1.433l.515 1.325-4.663 1.633a4.405 4.405 0 01-.114-1.067 202.452 202.452 0 00-.573-1.812L84.107 147.13l-1.49 1.261-43.852-9.047s-1.282-2.865-2.077-2.865c-.795 0-.05-.151-.05-.151s29.812-35.922 29.812-36.08a2.559 2.559 0 00.38-2.041l-1.812-6.239zm68.721 8.596c.136.558-.466 1.346.537 3.416.487 1.046 14.512 31.517 14.512 31.517.752 1.347.545 2.815 0 3.181-1.518.995-2.958-1.003-2.958-1.003l-16.346-31.653c-.53-1.003-.537-3.395-.494-3.703l4.749-1.755z" fill="#CF2542"/><path d="M61.2 77.17l2.78-.602 3.767 13.145-2.707.852L61.2 77.17zm18.086 68.801a2.09 2.09 0 013.568-1.489 2.09 2.09 0 01-1.476 3.573 2.088 2.088 0 01-2.092-2.084z" fill="#9F9EA0"/><path d="M79.23 145.971a2.149 2.149 0 114.297 0 2.149 2.149 0 01-4.297 0v0z" stroke="#fff" stroke-width=".68" stroke-miterlimit="3.86"/><path d="M98.554 154.768l-9.522 2.374.657 2.634 9.522-2.374-.657-2.634z" fill="#9F9EA0"/><path d="M98.554 154.768l-9.522 2.374.657 2.634 9.522-2.374-.657-2.634z" fill="#fff"/><path d="M98.554 154.768l-9.522 2.374.657 2.634 9.522-2.374-.657-2.634z" fill="#CF2542"/><path d="M86.736 150.34s6.11 1.476 6.733 1.433c.624-.043 6.633-.781 6.633-.781.437-.193 2.3 2.199 1.333 2.715-.967.515-20.4 5.458-20.4 5.458a5.73 5.73 0 01-1.225-3.582c0-1.067 1.683-3.581 1.683-3.581l5.243-1.662z" fill="#fff" stroke="#fff" stroke-width=".49" stroke-miterlimit="3.86"/><path d="M88.942 157.145l9.67-2.443.666 2.701-9.67 2.449-.666-2.707z" stroke="#fff" stroke-width=".72" stroke-miterlimit="3.86"/><path d="M62.619 130.809l-.45 2.547 9.205 1.626.45-2.546-9.205-1.627z" fill="#9F9EA0"/><path d="M62.619 130.809l-.45 2.547 9.205 1.626.45-2.546-9.205-1.627z" fill="#fff"/><path d="M62.619 130.809l-.45 2.547 9.205 1.626.45-2.546-9.205-1.627z" fill="#CF2542"/><path d="M79.394 144.896a2.368 2.368 0 012.4-1.085 2.373 2.373 0 01-.312 4.709 2.37 2.37 0 01-2.088-3.624z" fill="#9F9EA0"/><path d="M79.344 144.86a2.427 2.427 0 013.722-.477 2.427 2.427 0 01-1.588 4.195 2.435 2.435 0 01-2.053-1.015 2.426 2.426 0 01-.08-2.703z" fill="#fff"/><path d="M79.344 144.86a2.427 2.427 0 013.722-.477 2.427 2.427 0 01-1.588 4.195 2.435 2.435 0 01-2.053-1.015 2.426 2.426 0 01-.08-2.703z" fill="#CF2542"/><path d="M79.344 144.86a2.427 2.427 0 013.722-.477 2.427 2.427 0 01-1.588 4.195 2.435 2.435 0 01-2.053-1.015 2.426 2.426 0 01-.08-2.703z" stroke="#fff" stroke-width=".68" stroke-miterlimit="3.86"/><path d="M145.795 137.834a2.114 2.114 0 014.186-.418 2.112 2.112 0 01-2.08 2.523 2.104 2.104 0 01-2.106-2.105z" fill="#9F9EA0"/><path d="M145.795 137.834a2.114 2.114 0 014.186-.418 2.112 2.112 0 01-2.08 2.523 2.104 2.104 0 01-2.106-2.105z" fill="#fff"/><path d="M145.795 137.834a2.114 2.114 0 014.186-.418 2.112 2.112 0 01-2.08 2.523 2.104 2.104 0 01-2.106-2.105z" fill="#CF2542"/><path d="M145.723 137.833a2.146 2.146 0 011.326-1.985 2.147 2.147 0 012.93 1.566 2.15 2.15 0 11-4.256.419v0z" stroke="#fff" stroke-width=".78" stroke-miterlimit="3.86"/><path d="M39.382 141.422c.63.538 5.236 4.699 5.236 4.699l-1.333 1.619-7.32-6.447a2.868 2.868 0 013.417.122" fill="#9F9EA0"/><path d="M39.382 141.422c.63.538 5.236 4.699 5.236 4.699l-1.333 1.619-7.32-6.447a2.868 2.868 0 013.417.122" fill="#fff"/><path d="M38.071 152.797a1.908 1.908 0 012.276-1.877 1.91 1.91 0 011.499 1.5 1.904 1.904 0 01-1.877 2.275 1.908 1.908 0 01-1.898-1.898z" fill="#9F9EA0"/><path d="M38.071 152.797a1.908 1.908 0 012.276-1.877 1.91 1.91 0 011.499 1.5 1.904 1.904 0 01-1.877 2.275 1.908 1.908 0 01-1.898-1.898z" fill="#fff"/><path d="M38.071 152.797a1.908 1.908 0 012.276-1.877 1.91 1.91 0 011.499 1.5 1.904 1.904 0 01-1.877 2.275 1.908 1.908 0 01-1.898-1.898z" fill="#CF2542"/><path d="M35.327 137.834a2.11 2.11 0 011.3-1.958 2.111 2.111 0 012.885 1.536 2.11 2.11 0 01-2.072 2.527 2.112 2.112 0 01-2.113-2.105z" fill="#9F9EA0"/><path d="M35.327 137.834a2.11 2.11 0 011.3-1.958 2.111 2.111 0 012.885 1.536 2.11 2.11 0 01-2.072 2.527 2.112 2.112 0 01-2.113-2.105z" fill="#fff"/><path d="M35.327 137.834a2.11 2.11 0 011.3-1.958 2.111 2.111 0 012.885 1.536 2.11 2.11 0 01-2.072 2.527 2.112 2.112 0 01-2.113-2.105z" fill="#CF2542"/><path d="M35.263 137.833a2.145 2.145 0 011.326-1.985 2.145 2.145 0 012.342.466 2.145 2.145 0 01.466 2.342 2.151 2.151 0 01-3.505.697 2.15 2.15 0 01-.63-1.52z" fill="#CF2542"/><path d="M35.263 137.833a2.145 2.145 0 011.326-1.985 2.145 2.145 0 012.342.466 2.145 2.145 0 01.466 2.342 2.151 2.151 0 01-3.505.697 2.15 2.15 0 01-.63-1.52z" stroke="#fff" stroke-width=".78" stroke-miterlimit="3.86"/><path d="M35.263 137.833a2.145 2.145 0 011.326-1.985 2.145 2.145 0 012.342.466 2.145 2.145 0 01.466 2.342 2.151 2.151 0 01-3.505.697 2.15 2.15 0 01-.63-1.52z" stroke="#CF2542" stroke-width=".78" stroke-miterlimit="3.86"/><path d="M136.998 79.785a2.763 2.763 0 013.304-2.712 2.764 2.764 0 11-3.304 2.712z" fill="#9F9EA0"/><path d="M136.998 79.785a2.763 2.763 0 013.304-2.712 2.764 2.764 0 11-3.304 2.712z" fill="#fff"/><path d="M136.998 79.785a2.763 2.763 0 013.304-2.712 2.764 2.764 0 11-3.304 2.712z" fill="#CF2542"/><path d="M79.945 155.877l-40.205-1.734-.394-2.7c.093-.136 3.796-4.24 3.796-4.24l-6.446-5.91s-3.123-1.898-2.15-4.505c.853-2.35 3.489-1.877 3.489-1.877l30.084 2.271" stroke="#9F9EA0" stroke-width=".99" stroke-linecap="round" stroke-linejoin="round"/><path d="M79.945 155.877l-40.205-1.734-.394-2.7c.093-.136 3.796-4.24 3.796-4.24l-6.446-5.91s-3.123-1.898-2.15-4.505c.853-2.35 3.489-1.877 3.489-1.877l30.084 2.271" stroke="#fff" stroke-width=".99" stroke-linecap="round" stroke-linejoin="round"/><path d="M79.945 155.877l-40.205-1.734-.394-2.7c.093-.136 3.796-4.24 3.796-4.24l-6.446-5.91s-3.123-1.898-2.15-4.505c.853-2.35 3.489-1.877 3.489-1.877l30.084 2.271" stroke="#CF2542" stroke-width=".99" stroke-linecap="round" stroke-linejoin="round"/><path d="M103.125 58.654c6.325 1.87 26.202 13.775 26.202 13.775 1.848 1.876-.444 4.126-2.5 3.646-6.117-1.433-20.149-7.822-23.401-9.427-4.95-2.442-5.73-4.77-4.942-6.296.938-1.84 2.349-2.371 4.641-1.698z" fill="#47545B"/><path d="M103.125 58.654c6.325 1.87 26.202 13.775 26.202 13.775 1.848 1.876-.444 4.126-2.5 3.646-6.117-1.433-20.149-7.822-23.401-9.427-4.95-2.442-5.73-4.77-4.942-6.296.938-1.84 2.349-2.371 4.641-1.698z" fill="#9F9EA0"/><path d="M103.096 58.612c6.339 1.876 26.267 13.846 26.267 13.846 1.855 1.883-.445 4.147-2.508 3.66-6.131-1.433-20.199-7.88-23.458-9.47-4.964-2.456-5.73-4.791-4.95-6.331.953-1.813 2.386-2.379 4.649-1.705z" stroke="#fff" stroke-width=".49" stroke-miterlimit="3.86"/><path d="M99.888 18.542c-.81 3.818-5.466 5.014-5.559 5.078-.473-.315.896 2.2 2.908 4.105 1.583 1.504 2.7.587 2.7.587a13.413 13.413 0 004.657-4.448c-2.572-2.235-4.635-4.298-4.706-5.322z" fill="#47545B"/><path d="M99.888 18.542c-.81 3.818-5.466 5.014-5.559 5.078-.473-.315.896 2.2 2.908 4.105 1.583 1.504 2.7.587 2.7.587a13.413 13.413 0 004.657-4.448c-2.572-2.235-4.635-4.298-4.706-5.322z" fill="#9F9EA0"/><path d="M99.894 18.535c-.816 3.839-5.515 5.057-5.608 5.1-.48-.316.91 2.206 2.936 4.125 1.598 1.519 2.73.595 2.73.595a13.503 13.503 0 004.691-4.47c-2.593-2.242-4.677-4.312-4.749-5.35z" stroke="#fff" stroke-width=".49" stroke-miterlimit="3.86"/><path d="M86.7 107.083s-.55 34.225.624 41.681c.716 4.606-.939 1.626-3.109 1.906-1.504.193-2.586 3.581-3.302-1.655-.559-4.104-1.361-10.601-1.912-14.956-.459-3.675-2.572-7.937-3.08-11.017-1.39-8.302 2.04-16.417 6.733-16.124 4.412.273 4.047.165 4.047.165z" fill="#47545B"/><path d="M86.7 107.083s-.55 34.225.624 41.681c.716 4.606-.939 1.626-3.109 1.906-1.504.193-2.586 3.581-3.302-1.655-.559-4.104-1.361-10.601-1.912-14.956-.459-3.675-2.572-7.937-3.08-11.017-1.39-8.302 2.04-16.417 6.733-16.124 4.412.273 4.047.165 4.047.165z" fill="#9F9EA0"/><path d="M86.715 107.033s-.538 34.296.651 41.774c.717 4.613-.945 1.626-3.137 1.906-1.511.186-2.593 3.581-3.316-1.662-.566-4.112-1.376-10.623-1.927-14.992-.466-3.675-2.586-7.951-3.102-11.038-1.397-8.316 2.049-16.475 6.762-16.153 4.434.273 4.069.165 4.069.165z" stroke="#fff" stroke-width=".49" stroke-miterlimit="3.86"/><path d="M86.75 150.383s6.088 1.433 6.712 1.433c.623 0 6.597-.774 6.597-.774.444-.186 2.299 2.149 1.332 2.693-.967.545-20.321 5.401-20.321 5.401a5.658 5.658 0 01-1.218-3.581c0-1.068 1.676-3.539 1.676-3.539l5.222-1.633z" fill="#47545B"/><path d="M86.75 150.383s6.088 1.433 6.712 1.433c.623 0 6.597-.774 6.597-.774.444-.186 2.299 2.149 1.332 2.693-.967.545-20.321 5.401-20.321 5.401a5.658 5.658 0 01-1.218-3.581c0-1.068 1.676-3.539 1.676-3.539l5.222-1.633z" fill="#9F9EA0"/><path d="M86.75 150.383s6.088 1.433 6.712 1.433c.623 0 6.597-.774 6.597-.774.444-.186 2.299 2.149 1.332 2.693-.967.545-20.321 5.401-20.321 5.401a5.658 5.658 0 01-1.218-3.581c0-1.068 1.676-3.539 1.676-3.539l5.222-1.633z" fill="#9F9EA0"/><path d="M81.098 148.936a3.286 3.286 0 014.733-1.857 3.287 3.287 0 01-2.62 5.997 3.273 3.273 0 01-1.916-1.631 3.28 3.28 0 01-.197-2.509z" fill="#47545B"/><path d="M81.098 148.936a3.286 3.286 0 014.733-1.857 3.287 3.287 0 01-2.62 5.997 3.273 3.273 0 01-1.916-1.631 3.28 3.28 0 01-.197-2.509z" fill="#9F9EA0"/><path d="M81.063 148.922a3.322 3.322 0 016.12-.492 3.324 3.324 0 01-3.97 4.682 3.306 3.306 0 01-2.15-4.19z" stroke="#fff" stroke-width=".49" stroke-miterlimit="3.86"/><path d="M63.944 50.968c3.044 1.232 10.543 7.622 10.543 7.622 1.147 2.693-1.045 7.084-3.137 10.701-2.435 4.097-5.4 7.486-9.849 7.88-8.28-1.01-10.45-5.13-10.45-5.13-5.015-7.506 3.036-16.646 12.893-21.108" fill="#47545B"/><path d="M63.944 50.968c3.044 1.232 10.543 7.622 10.543 7.622 1.147 2.693-1.045 7.084-3.137 10.701-2.435 4.097-5.4 7.486-9.849 7.88-8.28-1.01-10.45-5.13-10.45-5.13-5.015-7.506 3.036-16.646 12.893-21.108" fill="#9F9EA0"/><path d="M63.95 50.926c3.06 1.232 10.58 7.642 10.58 7.642 1.146 2.7-1.053 7.113-3.151 10.745-2.443 4.111-5.416 7.514-9.878 7.944-8.31-1.01-10.487-5.143-10.487-5.143-5.007-7.536 3.052-16.712 12.937-21.188z" stroke="#fff" stroke-width=".49" stroke-miterlimit="3.86"/><path d="M95.289 23.205C77.023 14.43 64.767 51.907 56.773 55.051c4.298 1.182 13.23 9.441 15.35 12.78 4.298-5.99 20.436-18.703 22.628-21.963 5.014-5.594 5.58-8.552 5.523-12.563-.423-6.11-5.014-10.1-5.014-10.1" fill="#47545B"/><path d="M95.289 23.205C77.023 14.43 64.767 51.907 56.773 55.051c4.298 1.182 13.23 9.441 15.35 12.78 4.298-5.99 20.436-18.703 22.628-21.963 5.014-5.594 5.58-8.552 5.523-12.563-.423-6.11-5.014-10.1-5.014-10.1" fill="#9F9EA0"/><path d="M95.31 23.162c-18.344-8.796-30.636 28.773-38.68 31.925 4.298 1.19 13.287 9.462 15.414 12.808 4.298-5.996 20.522-18.746 22.721-22.012 5.014-5.602 5.602-8.596 5.537-12.585-.408-6.132-4.992-10.136-4.992-10.136z" stroke="#fff" stroke-width=".49" stroke-miterlimit="3.86"/><path d="M65.255 65.058c9.312 11.59 14.018 21.489 18.373 31.03 1.876 4.118 4.133 10.465 2.005 12.377-2.127 1.913-6.575-1.955-8.03-3.581-3.387-3.746-9.254-8.323-20.392-23.237-2.041-2.729-7.88-9.261-5.28-15.758 2.486-6.246 10.91-3.782 13.324-.853" fill="#47545B"/><path d="M65.255 65.058c9.312 11.59 14.018 21.489 18.373 31.03 1.876 4.118 4.133 10.465 2.005 12.377-2.127 1.913-6.575-1.955-8.03-3.581-3.387-3.746-9.254-8.323-20.392-23.237-2.041-2.729-7.88-9.261-5.28-15.758 2.486-6.246 10.91-3.782 13.324-.853" fill="#9F9EA0"/><path d="M65.24 65.022c9.355 11.612 14.054 21.49 18.416 31.088 1.884 4.126 4.147 10.479 2.013 12.406-2.135 1.927-6.59-1.963-8.051-3.582-3.396-3.753-9.276-8.337-20.436-23.28-2.042-2.735-7.88-9.275-5.294-15.8 2.5-6.24 10.938-3.768 13.352-.832z" stroke="#fff" stroke-width=".49" stroke-miterlimit="3.86"/><path d="M77.453 105.571a4.712 4.712 0 112.19 4.759 4.703 4.703 0 01-2.19-4.759z" fill="#47545B"/><path d="M77.453 105.571a4.712 4.712 0 112.19 4.759 4.703 4.703 0 01-2.19-4.759z" fill="#9F9EA0"/><path d="M77.41 105.565a4.755 4.755 0 019.45.559 4.758 4.758 0 01-8.602 2.982 4.764 4.764 0 01-.849-3.541v0z" stroke="#fff" stroke-width=".49" stroke-miterlimit="3.86"/><path d="M111.813 1.014c-1.74-.566-9.634-1.604-12.635 7.629-3.001 9.233.924 17.484 11.933 21.059 3.066.995 9.377-7.163 11.01-14.87 1.934-9.162-7.163-12.794-10.308-13.818z" fill="#9F9EA0"/><path d="M111.821.971c-1.748-.566-9.67-1.604-12.679 7.65-3.008 9.255.932 17.535 11.97 21.124 3.08 1.002 9.419-7.163 11.052-14.914 1.941-9.19-7.163-12.828-10.343-13.86z" stroke="#fff" stroke-width=".49" stroke-miterlimit="3.86"/><path d="M95.417 29.73c2.393 11.812 3.052 16.017 7.564 28.323 1.189 3.825.28 4.792-1.167 5.358-1.755.716-3.632.172-5.888-3.417-4.362-6.948-9.699-28.38-9.699-28.38-.773-2.6 1.218-3.58 3.324-4.448 2.385-.945 5.193.187 5.866 2.565z" fill="#47545B"/><path d="M95.417 29.73c2.393 11.812 3.052 16.017 7.564 28.323 1.189 3.825.28 4.792-1.167 5.358-1.755.716-3.632.172-5.888-3.417-4.362-6.948-9.699-28.38-9.699-28.38-.773-2.6 1.218-3.58 3.324-4.448 2.385-.945 5.193.187 5.866 2.565z" fill="#9F9EA0"/><path d="M95.417 29.695c2.407 11.84 3.066 16.059 7.6 28.386 1.189 3.832.287 4.8-1.175 5.372-1.762.717-3.638.172-5.91-3.423-4.383-6.963-9.74-28.452-9.74-28.452-.781-2.6 1.217-3.624 3.337-4.455 2.393-.946 5.215.186 5.888 2.572z" stroke="#fff" stroke-width=".49" stroke-miterlimit="3.86"/><path d="M127.736 76.039s-.257-3.345 2.386-4.004c4.297-1.067 8.71 1.103 8.71 1.103s-.179 4.169-.516 4.298c-7.163 2.335-10.58-1.376-10.58-1.376" fill="#47545B"/><path d="M127.736 76.039s-.257-3.345 2.386-4.004c4.297-1.067 8.71 1.103 8.71 1.103s-.179 4.169-.516 4.298c-7.163 2.335-10.58-1.376-10.58-1.376" fill="#9F9EA0"/><path d="M127.693 76.053s-.258-3.388 2.407-4.054c4.298-1.081 8.775 1.118 8.775 1.118s-.179 4.211-.516 4.297c-7.249 2.4-10.666-1.36-10.666-1.36z" stroke="#fff" stroke-width=".49" stroke-miterlimit="3.86"/><path d="M138.56 73.238s2.529.716 3.746 2.149c2.866 3.252.638 8.595-.515 5.974-2.149-4.864-4.506-3.725-4.506-3.725l1.275-4.398z" fill="#47545B"/><path d="M138.56 73.238s2.529.716 3.746 2.149c2.866 3.252.638 8.595-.515 5.974-2.149-4.864-4.506-3.725-4.506-3.725l1.275-4.398z" fill="#9F9EA0"/><path d="M138.517 73.188s2.571.716 3.811 2.149c2.865 3.295.651 8.66-.523 6.038-2.199-4.913-4.577-3.76-4.577-3.76l1.289-4.427z" stroke="#fff" stroke-width=".49" stroke-miterlimit="3.86"/><path d="M86.507 32.001a4.705 4.705 0 114.703 2.32 4.712 4.712 0 01-4.703-2.32z" fill="#47545B"/><path d="M86.507 32.001a4.705 4.705 0 114.703 2.32 4.712 4.712 0 01-4.703-2.32z" fill="#9F9EA0"/><path d="M86.507 32.001a4.749 4.749 0 116.497 1.74 4.763 4.763 0 01-6.497-1.74v0z" stroke="#fff" stroke-width=".49" stroke-miterlimit="3.86"/><path d="M98.254 60.996a3.287 3.287 0 111.232 3.437 3.28 3.28 0 01-1.232-3.437z" fill="#47545B"/><path d="M98.254 60.996a3.287 3.287 0 111.232 3.437 3.28 3.28 0 01-1.232-3.437z" fill="#9F9EA0"/><path d="M98.211 60.99a3.322 3.322 0 016.072-.909 3.319 3.319 0 01-.173 3.687 3.317 3.317 0 01-3.471 1.254 3.331 3.331 0 01-2.428-4.032v0z" stroke="#fff" stroke-width=".49" stroke-miterlimit="3.86"/><path d="M121.605 2.304L59.553 66.476m0 0L96.6 164.022" stroke="#C2D000" stroke-width="1.01" stroke-linecap="round" stroke-linejoin="round"/></svg>