<svg width="190" height="181" fill="none" xmlns="http://www.w3.org/2000/svg"><path d="M16.089 180l162.077-.145" stroke="#9F9EA0" stroke-width=".63" stroke-miterlimit="3.86"/><path d="M100.054 13.847A70.837 70.837 0 0078.269 3.234" stroke="#C2D000" stroke-width="1.4" stroke-linecap="round" stroke-linejoin="round"/><path d="M75.304 3.752a51.873 51.873 0 014.193 3.089L81.187 1c-1.723.218-3.457.34-5.193.365a36.095 36.095 0 01-5.455-.282 35.454 35.454 0 014.765 2.669" fill="#C2D000"/><path d="M125.86 170.015a.919.919 0 01-1.568.646.92.92 0 01-.195-1.002.916.916 0 01.852-.562.907.907 0 01.843.567c.046.111.069.23.068.351z" stroke="#C2D000" stroke-width=".49" stroke-linecap="round" stroke-linejoin="round"/><path d="M88.372 176.055a73.936 73.936 0 0022.116-11.592" stroke="#C2D000" stroke-width="1.4" stroke-linecap="round" stroke-linejoin="round"/><path d="M111.929 161.85a52.865 52.865 0 01-5.123 1.53l3.744 5a47.874 47.874 0 012.91-4.489 35.411 35.411 0 013.607-4.296 37.26 37.26 0 01-5.138 2.255" fill="#C2D000"/><path d="M116.888 4.62a.921.921 0 01-.918.91.917.917 0 010-1.827.925.925 0 01.918.918v0z" stroke="#C2D000" stroke-width=".49" stroke-linecap="round" stroke-linejoin="round"/><path d="M41.362 91.034c1.545 0 2.07.4 8.655.283 6.586-.117 15.171 2.352 10.02 2.49-5.814.158-1.38.069-5.558 1.572-3.235.551-3.29 1.048-4.904.538a87.957 87.957 0 00-9.592-2.635c-1.434-.33-1.007-.875-.586-1.496.42-.62 1.503-.738 1.965-.752" fill="#9F9EA0"/><path d="M41.362 91.034c1.545 0 2.07.4 8.655.283 6.586-.117 15.171 2.352 10.02 2.49-5.814.158-1.38.069-5.558 1.572-3.235.551-3.29 1.048-4.904.538a87.957 87.957 0 00-9.592-2.635c-1.434-.33-1.007-.875-.586-1.496.42-.62 1.503-.738 1.965-.752" fill="#fff"/><path d="M41.362 91.034c1.545 0 2.07.4 8.655.283 6.586-.117 15.171 2.352 10.02 2.49-5.814.158-1.38.069-5.558 1.572-3.235.551-3.29 1.048-4.904.538a87.957 87.957 0 00-9.592-2.635c-1.434-.33-1.007-.875-.586-1.496.42-.62 1.503-.738 1.965-.752" fill="#CF2542"/><path d="M73.305 139.313s2.069 4.559 2.538 4.897c.468.338 5.578 1.475 5.578 1.475.435.124.125 3.09-.89 2.897-.344-.069-4.137-.517-8.274-.78-.642-.689-8.276-5.447-8.276-5.447a5.325 5.325 0 011.235-3.345c.627-.786 3.33-1.607 3.33-1.607l4.759 1.91z" fill="#47545B"/><path d="M73.312 139.272s2.069 4.607 2.551 4.951c.483.345 5.607 1.49 5.607 1.49.441.124.124 3.124-.897 2.924-.345-.069-4.137-.517-8.358-.779-.641-.69-8.344-5.517-8.344-5.517a5.421 5.421 0 011.241-3.386c.635-.793 3.359-1.621 3.359-1.621l4.84 1.938z" stroke="#fff" stroke-width=".46" stroke-miterlimit="3.86"/><path d="M91.614 108.233s-14.62 23.964-15.6 25.908c-1.971 3.938-2.944 5.241-4.826 4.448-1.324-.558-2.186-1.999-.31-6.599 1.482-3.621 2.282-5.634 3.889-9.455 1.379-3.22 1.379-6.896 2.44-9.654 2.76-7.448 9.655-13.247 13.386-10.792 3.49 2.31 1.048 6.206 1.048 6.206" fill="#47545B"/><path d="M91.614 108.206s-14.696 24.025-15.675 25.977c-1.986 3.944-2.965 5.255-4.89 4.455-1.33-.559-2.192-2.007-.303-6.614 1.49-3.634 2.29-5.654 3.91-9.482 1.38-3.234 1.38-6.944 2.448-9.709 2.807-7.469 9.738-13.282 13.454-10.82 3.531 2.317 1.056 6.193 1.056 6.193z" stroke="#fff" stroke-width=".46" stroke-miterlimit="3.86"/><path d="M53.127 81.16c16.723 3.075 24.825 9.337 32.17 13.557 6.813 3.917 7.73 5.565 7.261 8.234-.469 2.669-5.517 1.869-7.544 1.517-4.703-.814-17.157-.945-31.377-7.51-2.924-1.379-7.11-2.186-9.11-6.972-2.8-6.716 5.103-9.606 8.6-8.827" fill="#47545B"/><path d="M53.127 81.16c16.723 3.075 24.825 9.337 32.17 13.557 6.813 3.917 7.73 5.565 7.261 8.234-.469 2.669-5.517 1.869-7.544 1.517-4.703-.814-17.157-.945-31.377-7.51-2.924-1.379-7.11-2.186-9.11-6.972-2.8-6.716 5.103-9.606 8.6-8.827" fill="#43525A"/><path d="M53.099 81.104c16.757 3.09 24.888 9.379 32.239 13.62 6.82 3.937 7.744 5.592 7.275 8.275-.469 2.682-5.517 1.889-7.585 1.538-4.71-.828-17.2-.952-31.446-7.545-2.931-1.379-7.124-2.193-9.13-7.006-2.78-6.758 5.137-9.668 8.647-8.882z" stroke="#fff" stroke-width=".46" stroke-miterlimit="3.86"/><path d="M85.151 105.261a4.456 4.456 0 114.405 2.272 4.459 4.459 0 01-3.282-.941 4.46 4.46 0 01-1.123-1.331" fill="#47545B"/><path d="M85.103 105.288a4.51 4.51 0 114.455 2.297 4.499 4.499 0 01-4.455-2.297v0z" stroke="#fff" stroke-width=".46" stroke-miterlimit="3.86"/><path d="M127.376 91.573c-2.008.078-4.01.262-5.999.551-11.565 2.069-19.219 6.427-28.688 12.854-6.896 4.662-14.247 10.186-21.08 14.91-.904.62-2.007.813-2.91 1.441-11.097 7.689-21.978 15.392-33.178 23.026l-1.89-.89s18.151-13.523 36.302-26.046c7.254-5.014 14.564-10.144 20.812-14.385 12.006-8.152 20.439-13.158 35.431-14.544l1.2 3.083z" fill="#9F9EA0"/><path d="M127.376 91.573c-2.008.078-4.01.262-5.999.551-11.565 2.069-19.219 6.427-28.688 12.854-6.896 4.662-14.247 10.186-21.08 14.91-.904.62-2.007.813-2.91 1.441-11.097 7.689-21.978 15.392-33.178 23.026l-1.89-.89s18.151-13.523 36.302-26.046c7.254-5.014 14.564-10.144 20.812-14.385 12.006-8.152 20.439-13.158 35.431-14.544l1.2 3.083z" fill="#fff"/><path d="M127.376 91.573c-2.008.078-4.01.262-5.999.551-11.565 2.069-19.219 6.427-28.688 12.854-6.896 4.662-14.247 10.186-21.08 14.91-.904.62-2.007.813-2.91 1.441-11.097 7.689-21.978 15.392-33.178 23.026l-1.89-.89s18.151-13.523 36.302-26.046c7.254-5.014 14.564-10.144 20.812-14.385 12.006-8.152 20.439-13.158 35.431-14.544l1.2 3.083z" fill="#CF2542"/><path d="M67.477 110.364l17.378 39.721c-.992.333-1.966.72-2.917 1.159l-17.24-39.446 2.78-1.434z" fill="#9F9EA0"/><path d="M67.477 110.364l17.378 39.721c-.992.333-1.966.72-2.917 1.159l-17.24-39.446 2.78-1.434z" fill="#fff"/><path d="M67.477 110.364l17.378 39.721c-.992.333-1.966.72-2.917 1.159l-17.24-39.446 2.78-1.434z" fill="#CF2542"/><path d="M132.859 105.764s-.379.876-.689 1.028c-8.276 4.137-11.765 9.254-14.385 12.895-9.986 13.896-22.447 31.577-22.447 31.577l-3.269-1.731s12.413-18.288 22.412-32.218c2.242-3.117 11.827-14.564 18.564-15.13l-.186 3.579z" fill="#9F9EA0"/><path d="M132.859 105.764s-.379.876-.689 1.028c-8.276 4.137-11.765 9.254-14.385 12.895-9.986 13.896-22.447 31.577-22.447 31.577l-3.269-1.731s12.413-18.288 22.412-32.218c2.242-3.117 11.827-14.564 18.564-15.13l-.186 3.579z" fill="#fff"/><path d="M132.859 105.764s-.379.876-.689 1.028c-8.276 4.137-11.765 9.254-14.385 12.895-9.986 13.896-22.447 31.577-22.447 31.577l-3.269-1.731s12.413-18.288 22.412-32.218c2.242-3.117 11.827-14.564 18.564-15.13l-.186 3.579z" fill="#CF2542"/><path d="M132.472 108.757c-2.503-7.096-5.475-14.433-8.027-21.502l3.821-1.379c.207.545 7.585 20.164 8.096 21.474l-3.89 1.407z" fill="#9F9EA0"/><path d="M132.472 108.757c-2.503-7.096-5.475-14.433-8.027-21.502l3.821-1.379c.207.545 7.585 20.164 8.096 21.474l-3.89 1.407z" fill="#fff"/><path d="M132.472 108.757c-2.503-7.096-5.475-14.433-8.027-21.502l3.821-1.379c.207.545 7.585 20.164 8.096 21.474l-3.89 1.407z" fill="#CF2542"/><path d="M34.253 144.665l50.59 4.73 10.143-.275.317 2.13-.262 1.152-9.86-.234-50.928-5.586v-1.917z" fill="#9F9EA0"/><path d="M34.253 144.665l50.59 4.73 10.143-.275.317 2.13-.262 1.152-9.86-.234-50.928-5.586v-1.917z" fill="#fff"/><path d="M34.253 144.665l50.59 4.73 10.143-.275.317 2.13-.262 1.152-9.86-.234-50.928-5.586v-1.917z" fill="#CF2542"/><path d="M57.272 99.992l2.758-.345c.368.321.766.607 1.186.856.483.241 2.159 1.234 2.503 2.068.276.69 2.021 4.697 2.662 6.207l-2.137.862c-.69-1.552-3.145-6.855-3.373-7.138a4.883 4.883 0 00-1.31-1.434 8.45 8.45 0 00-2.31-1.034" fill="#9F9EA0"/><path d="M57.272 99.992l2.758-.345c.368.321.766.607 1.186.856.483.241 2.159 1.234 2.503 2.068.276.69 2.021 4.697 2.662 6.207l-2.137.862c-.69-1.552-3.145-6.855-3.373-7.138a4.883 4.883 0 00-1.31-1.434 8.45 8.45 0 00-2.31-1.034" fill="#fff"/><path d="M57.272 99.992l2.758-.345c.368.321.766.607 1.186.856.483.241 2.159 1.234 2.503 2.068.276.69 2.021 4.697 2.662 6.207l-2.137.862c-.69-1.552-3.145-6.855-3.373-7.138a4.883 4.883 0 00-1.31-1.434 8.45 8.45 0 00-2.31-1.034" fill="#CF2542"/><path d="M153.526 145.327a1.686 1.686 0 011.043-1.561 1.685 1.685 0 011.842.366 1.687 1.687 0 01-.256 2.599 1.689 1.689 0 01-2.629-1.404m-121.004-.483a1.692 1.692 0 012.019-1.657 1.69 1.69 0 11-2.02 1.657m42.577 5.013l36.018 1.821a1.039 1.039 0 01.983 1.086 1.034 1.034 0 01-1.087.983l-36.017-1.828a1.01 1.01 0 01-.962-1.065 1.017 1.017 0 011.065-.962" fill="#9F9EA0"/><path d="M75.098 149.857l36.018 1.821a1.039 1.039 0 01.983 1.086 1.034 1.034 0 01-1.087.983l-36.017-1.828a1.01 1.01 0 01-.962-1.065 1.017 1.017 0 011.065-.962" fill="#fff"/><path d="M75.098 149.857l36.018 1.821a1.039 1.039 0 01.983 1.086 1.034 1.034 0 01-1.087.983l-36.017-1.828a1.01 1.01 0 01-.962-1.065 1.017 1.017 0 011.065-.962" fill="#CF2542"/><path d="M114.357 149.655l-7.076 4.25 1.438 2.394 7.076-4.25-1.438-2.394z" fill="#9F9EA0"/><path d="M114.357 149.655l-7.076 4.25 1.438 2.394 7.076-4.25-1.438-2.394z" fill="#fff"/><path d="M114.357 149.655l-7.076 4.25 1.438 2.394 7.076-4.25-1.438-2.394z" fill="#CF2542"/><path d="M107.191 153.843l7.324-4.427 1.49 2.49-7.324 4.427-1.49-2.49z" stroke="#fff" stroke-width=".88" stroke-miterlimit="3.86"/><path d="M71.341 149.001l-.299 2.437 8.816 1.082.299-2.437-8.816-1.082z" fill="#9F9EA0"/><path d="M71.341 149.001l-.299 2.437 8.816 1.082.299-2.437-8.816-1.082z" fill="#fff"/><path d="M71.341 149.001l-.299 2.437 8.816 1.082.299-2.437-8.816-1.082z" fill="#CF2542"/><path d="M123.97 86.366l-1.476-5.73 2.827-1.028 2.511 5.351-3.862 1.407z" fill="#9F9EA0"/><path d="M123.97 86.366l-1.476-5.73 2.827-1.028 2.511 5.351-3.862 1.407z" fill="#fff"/><path d="M123.97 86.366l-1.476-5.73 2.827-1.028 2.511 5.351-3.862 1.407z" fill="#CF2542"/><path d="M136.438 108.385l.758 2.248 18.095 33.452-1.379.69-18.991-31.466a39.683 39.683 0 01-1.876-3.711l3.393-1.213z" fill="#9F9EA0"/><path d="M136.438 108.385l.758 2.248 18.095 33.452-1.379.69-18.991-31.466a39.683 39.683 0 01-1.876-3.711l3.393-1.213z" fill="#fff"/><path d="M136.438 108.385l.758 2.248 18.095 33.452-1.379.69-18.991-31.466a39.683 39.683 0 01-1.876-3.711l3.393-1.213z" fill="#CF2542"/><path d="M91.055 152.085a2.256 2.256 0 114.512 0 2.256 2.256 0 01-4.512 0z" fill="#9F9EA0"/><path d="M91.055 152.085a2.256 2.256 0 114.512 0 2.256 2.256 0 01-4.512 0z" fill="#fff"/><path d="M90.98 152.085a2.333 2.333 0 012.783-2.293 2.328 2.328 0 011.7 3.181 2.335 2.335 0 01-3.803.755 2.324 2.324 0 01-.68-1.643v0z" stroke="#fff" stroke-width=".62" stroke-miterlimit="3.86"/><path d="M122.211 79.677c-.069-.22-.262-.8-.345-1.145a19.827 19.827 0 00-.958-1.869c-.166-.372 0-.586 1.282-1.172 1.283-.586 1.918-.214 1.918-.214a26.369 26.369 0 002.517-2.069c.427-.53.103-1.551 1.648-2.193 2.296-.951 3.448 2.407 3.448 2.407l-2.028 1.869a5.122 5.122 0 00-2.62 1.117 5.74 5.74 0 00-1.71 2.145l-3.152 1.124z" fill="#9F9EA0"/><path d="M122.211 79.677c-.069-.22-.262-.8-.345-1.145a19.827 19.827 0 00-.958-1.869c-.166-.372 0-.586 1.282-1.172 1.283-.586 1.918-.214 1.918-.214a26.369 26.369 0 002.517-2.069c.427-.53.103-1.551 1.648-2.193 2.296-.951 3.448 2.407 3.448 2.407l-2.028 1.869a5.122 5.122 0 00-2.62 1.117 5.74 5.74 0 00-1.71 2.145l-3.152 1.124z" fill="#fff"/><path d="M122.211 79.677c-.069-.22-.262-.8-.345-1.145a19.827 19.827 0 00-.958-1.869c-.166-.372 0-.586 1.282-1.172 1.283-.586 1.918-.214 1.918-.214a26.369 26.369 0 002.517-2.069c.427-.53.103-1.551 1.648-2.193 2.296-.951 3.448 2.407 3.448 2.407l-2.028 1.869a5.122 5.122 0 00-2.62 1.117 5.74 5.74 0 00-1.71 2.145l-3.152 1.124z" fill="#CF2542"/><path d="M129.749 73.663c-1.228.532-1.545-.475-1.545-.475s-4.138-7.586-4.634-8.696c-.497-1.11-.855-1.069-1.179-1.069-.324 0-4.538.53-5.069.53-.531 0-.69-.282-1.069-.903a1.048 1.048 0 010-1.227s5.517-.641 5.82-.641a3.038 3.038 0 012.566 1.337c.324.414 4.365 7.724 5.165 8.903.8 1.18.586 1.966-.055 2.242" fill="#9F9EA0"/><path d="M129.749 73.663c-1.228.532-1.545-.475-1.545-.475s-4.138-7.586-4.634-8.696c-.497-1.11-.855-1.069-1.179-1.069-.324 0-4.538.53-5.069.53-.531 0-.69-.282-1.069-.903a1.048 1.048 0 010-1.227s5.517-.641 5.82-.641a3.038 3.038 0 012.566 1.337c.324.414 4.365 7.724 5.165 8.903.8 1.18.586 1.966-.055 2.242" fill="#fff"/><path d="M129.749 73.663c-1.228.532-1.545-.475-1.545-.475s-4.138-7.586-4.634-8.696c-.497-1.11-.855-1.069-1.179-1.069-.324 0-4.538.53-5.069.53-.531 0-.69-.282-1.069-.903a1.048 1.048 0 010-1.227s5.517-.641 5.82-.641a3.038 3.038 0 012.566 1.337c.324.414 4.365 7.724 5.165 8.903.8 1.18.586 1.966-.055 2.242" fill="#CF2542"/><path d="M120.75 60.65a1.812 1.812 0 01.855 1.173c.331 1.641-.8 2.027-.8 2.027s-3.848.752-4.434.8a1.778 1.778 0 01-2.069-1.282c-.428-1.545.483-2.028.91-2.138.428-.11 4.593-.531 5.517-.58M34.66 110.102a34.663 34.663 0 0132.02 21.396 34.659 34.659 0 11-32.02-21.396m0 2.758a31.886 31.886 0 00-22.548 54.435 31.881 31.881 0 0034.75 6.912 31.882 31.882 0 0019.685-29.459 31.88 31.88 0 00-31.888-31.888" fill="#9F9EA0"/><path d="M34.66 110.102a34.663 34.663 0 0132.02 21.396 34.659 34.659 0 11-32.02-21.396m0 2.758a31.886 31.886 0 00-22.548 54.435 31.881 31.881 0 0034.75 6.912 31.882 31.882 0 0019.685-29.459 31.88 31.88 0 00-31.888-31.888" fill="#fff"/><path d="M34.66 110.102a34.663 34.663 0 0132.02 21.396 34.659 34.659 0 11-32.02-21.396m0 2.758a31.886 31.886 0 00-22.548 54.435 31.881 31.881 0 0034.75 6.912 31.882 31.882 0 0019.685-29.459 31.88 31.88 0 00-31.888-31.888" fill="#CF2542"/><path d="M155.264 110.171a34.664 34.664 0 0132.021 21.396 34.655 34.655 0 01-7.513 37.771 34.658 34.658 0 01-53.326-5.252 34.657 34.657 0 0128.818-53.915zm0 2.758a31.887 31.887 0 10-.001 63.774 31.887 31.887 0 00.001-63.774" fill="#9F9EA0"/><path d="M155.264 110.171a34.664 34.664 0 0132.021 21.396 34.655 34.655 0 01-7.513 37.771 34.658 34.658 0 01-53.326-5.252 34.657 34.657 0 0128.818-53.915zm0 2.758a31.887 31.887 0 10-.001 63.774 31.887 31.887 0 00.001-63.774" fill="#fff"/><path d="M155.264 110.171a34.664 34.664 0 0132.021 21.396 34.655 34.655 0 01-7.513 37.771 34.658 34.658 0 01-53.326-5.252 34.657 34.657 0 0128.818-53.915zm0 2.758a31.887 31.887 0 10-.001 63.774 31.887 31.887 0 00.001-63.774" fill="#CF2542"/><path d="M153.119 145.375a2.009 2.009 0 012.394-1.976c.39.077.748.267 1.029.548a2.003 2.003 0 01-.3 3.089 2.01 2.01 0 01-2.97-.894 2 2 0 01-.153-.767" fill="#9F9EA0"/><path d="M153.119 145.375a2.009 2.009 0 012.394-1.976c.39.077.748.267 1.029.548a2.003 2.003 0 01-.3 3.089 2.01 2.01 0 01-2.97-.894 2 2 0 01-.153-.767" fill="#fff"/><path d="M153.119 145.375a2.009 2.009 0 012.394-1.976c.39.077.748.267 1.029.548a2.003 2.003 0 01-.3 3.089 2.01 2.01 0 01-2.97-.894 2 2 0 01-.153-.767" fill="#CF2542"/><path d="M153.036 145.375c0-.409.121-.809.349-1.149a2.066 2.066 0 013.749.745 2.066 2.066 0 01-.88 2.124 2.07 2.07 0 01-2.612-.257 2.069 2.069 0 01-.606-1.463v0z" stroke="#fff" stroke-width=".7" stroke-miterlimit="3.86"/><path d="M63.85 111.26a.405.405 0 01.228-.531l3.082-1.248a.407.407 0 01.524.228l.249.607a.397.397 0 01-.228.524l-3.083 1.248a.394.394 0 01-.31-.004.403.403 0 01-.214-.224l-.248-.6z" fill="#9F9EA0"/><path d="M63.85 111.26a.405.405 0 01.228-.531l3.082-1.248a.407.407 0 01.524.228l.249.607a.397.397 0 01-.228.524l-3.083 1.248a.394.394 0 01-.31-.004.403.403 0 01-.214-.224l-.248-.6z" fill="#fff"/><path d="M63.85 111.26a.405.405 0 01.228-.531l3.082-1.248a.407.407 0 01.524.228l.249.607a.397.397 0 01-.228.524l-3.083 1.248a.394.394 0 01-.31-.004.403.403 0 01-.214-.224l-.248-.6z" fill="#CF2542"/><path d="M35.756 158.291a1.806 1.806 0 013.58-.348 1.809 1.809 0 01-3.445 1.039 1.8 1.8 0 01-.135-.691z" fill="#9F9EA0"/><path d="M35.756 158.291a1.806 1.806 0 013.58-.348 1.809 1.809 0 01-3.445 1.039 1.8 1.8 0 01-.135-.691z" fill="#fff"/><path d="M35.756 158.291a1.806 1.806 0 013.58-.348 1.809 1.809 0 01-3.445 1.039 1.8 1.8 0 01-.135-.691z" fill="#CF2542"/><path d="M32.184 144.885a2.005 2.005 0 012.394-1.976 2.013 2.013 0 011.58 1.575 2.008 2.008 0 01-3.384 1.816 2.008 2.008 0 01-.59-1.415" fill="#9F9EA0"/><path d="M32.1 144.885a2.068 2.068 0 113.98.792 2.074 2.074 0 01-1.91 1.277 2.069 2.069 0 01-2.07-2.069z" fill="#fff"/><path d="M32.1 144.885a2.068 2.068 0 113.98.792 2.074 2.074 0 01-1.91 1.277 2.069 2.069 0 01-2.07-2.069z" fill="#CF2542"/><path d="M32.1 144.885a2.068 2.068 0 113.98.792 2.074 2.074 0 01-1.91 1.277 2.069 2.069 0 01-2.07-2.069v0z" stroke="#fff" stroke-width=".7" stroke-miterlimit="3.86"/><path d="M36.446 148.409c.6.511 4.675 4.29 4.675 4.29l-1.38 1.531-7.136-6.524a7.59 7.59 0 013.813.689" fill="#9F9EA0"/><path d="M36.446 148.409c.6.511 4.675 4.29 4.675 4.29l-1.38 1.531-7.136-6.524a7.59 7.59 0 013.813.689" fill="#fff"/><path d="M36.446 148.409c.6.511 4.675 4.29 4.675 4.29l-1.38 1.531-7.136-6.524a7.59 7.59 0 013.813.689" fill="#CF2542"/><path d="M91.296 142.817a9.657 9.657 0 019.928 4.108 9.659 9.659 0 01-.02 10.745 9.654 9.654 0 11-9.908-14.853m.241 1.206a8.398 8.398 0 00-6.622 6.565 8.39 8.39 0 008.185 10.066 8.394 8.394 0 001.714-16.618 8.383 8.383 0 00-3.277-.013" fill="#9F9EA0"/><path d="M91.296 142.817a9.657 9.657 0 019.928 4.108 9.659 9.659 0 01-.02 10.745 9.654 9.654 0 11-9.908-14.853m.241 1.206a8.398 8.398 0 00-6.622 6.565 8.39 8.39 0 008.185 10.066 8.394 8.394 0 001.714-16.618 8.383 8.383 0 00-3.277-.013" fill="#fff"/><path d="M91.296 142.817a9.657 9.657 0 019.928 4.108 9.659 9.659 0 01-.02 10.745 9.654 9.654 0 11-9.908-14.853m.241 1.206a8.398 8.398 0 00-6.622 6.565 8.39 8.39 0 008.185 10.066 8.394 8.394 0 001.714-16.618 8.383 8.383 0 00-3.277-.013" fill="#CF2542"/><path d="M91.806 152.402a1.51 1.51 0 112.963-.578 1.51 1.51 0 01-2.963.578z" fill="#9F9EA0"/><path d="M91.806 152.402a1.51 1.51 0 112.963-.578 1.51 1.51 0 01-2.963.578z" fill="#fff"/><path d="M91.806 152.402a1.51 1.51 0 112.963-.578 1.51 1.51 0 01-2.963.578z" fill="#CF2542"/><path d="M90.759 161.05l-53.265-1.683-.531-2.248 4.034-3.917-7.744-5.579s-2.359-1.11-1.82-3.324a2.834 2.834 0 013.082-2.199l28.198 1.055m27.211.379l-6.661-.104" stroke="#9F9EA0" stroke-width=".9" stroke-linecap="round" stroke-linejoin="round"/><path d="M90.759 161.05l-53.265-1.683-.531-2.248 4.034-3.917-7.744-5.579s-2.359-1.11-1.82-3.324a2.834 2.834 0 013.082-2.199l28.198 1.055m27.211.379l-6.661-.104" stroke="#fff" stroke-width=".9" stroke-linecap="round" stroke-linejoin="round"/><path d="M90.759 161.05l-53.265-1.683-.531-2.248 4.034-3.917-7.744-5.579s-2.359-1.11-1.82-3.324a2.834 2.834 0 013.082-2.199l28.198 1.055m27.211.379l-6.661-.104" stroke="#CF2542" stroke-width=".9" stroke-linecap="round" stroke-linejoin="round"/><path d="M107.827 63.299s-.166-3.393.834-3.89a13.861 13.861 0 018.227-1.124s3.71 4.628 3.448 4.828c-6.958 4.875-12.496.2-12.496.2" fill="#B45A18"/><path d="M107.798 63.313s-.165-3.449.842-3.924a13.88 13.88 0 018.275-1.131s3.724 4.661 3.448 4.827c-7.007 4.937-12.565.228-12.565.228z" stroke="#fff" stroke-width=".26" stroke-miterlimit="3.86"/><path d="M114.943 58.216c1.593.03 3.17.332 4.661.897.952.31 5.434 8.034 2.8 7.496a7.768 7.768 0 01-4.917-3.276s-2.841-5.227-2.544-5.117" fill="#B45A18"/><path d="M114.915 58.182a14 14 0 014.696.903c.959.317 5.469 8.096 2.814 7.586a7.807 7.807 0 01-4.945-3.304s-2.868-5.296-2.565-5.185z" stroke="#fff" stroke-width=".26" stroke-miterlimit="3.86"/><path d="M68.263 136.976a3.108 3.108 0 012.85-1.941 3.11 3.11 0 012.884 1.89 3.104 3.104 0 01-4.016 4.092 3.097 3.097 0 01-1.702-1.663 3.085 3.085 0 01-.016-2.378" fill="#47545B"/><path d="M68.215 136.955a3.156 3.156 0 014.66-1.429 3.157 3.157 0 01-1.093 5.726 3.164 3.164 0 01-1.822-.159 3.153 3.153 0 01-1.741-1.703 3.142 3.142 0 01-.004-2.435z" stroke="#fff" stroke-width=".46" stroke-miterlimit="3.86"/><path d="M59.706 27.019c1.559 3.344-1.269 6.896-1.31 6.992-.538 0 1.924 1.152 4.53 1.448 2.07.235 2.373-1.096 2.373-1.096a12.653 12.653 0 00.986-6.007c-3.214-.22-5.938-.606-6.579-1.337z" fill="#47545B"/><path d="M59.664 26.977c1.58 3.38-1.283 6.986-1.324 7.076-.545.034 1.952 1.158 4.593 1.461 2.069.242 2.407-1.103 2.407-1.103.82-1.914 1.16-4 .992-6.075-3.247-.235-6.02-.614-6.668-1.359z" stroke="#fff" stroke-width=".46" stroke-miterlimit="3.86"/><path d="M59.071 6.73c-1.613.621-8.033 4.566-4.744 13.103 3.29 8.537 11.082 12.289 21.295 8.372 2.848-1.097 2.627-10.855-.759-17.475-4.027-7.889-12.847-5.151-15.792-4.027" fill="#47545B"/><path d="M59.071 6.73c-1.613.621-8.033 4.566-4.744 13.103 3.29 8.537 11.082 12.289 21.295 8.372 2.848-1.097 2.627-10.855-.759-17.475-4.027-7.889-12.847-5.151-15.792-4.027" fill="#43525A"/><path d="M59.043 6.682c-1.62.628-8.068 4.586-4.765 13.186 3.303 8.599 11.13 12.35 21.378 8.413 2.862-1.097 2.64-10.903-.759-17.558-4.04-7.916-12.902-5.172-15.854-4.04z" stroke="#fff" stroke-width=".46" stroke-miterlimit="3.86"/><path d="M90.855 108.992s9.848 30.287 10.675 32.301c1.676 4.075 2.317 6.034.455 6.951-1.282.634-2.31.869-3.027-.38-1.959-3.392-4.738-7.868-6.572-11.592-1.545-3.144-5.993-7.882-7.4-10.468-3.792-6.999-2.427-15.378 1.856-16.55 4.027-1.111 4.013-.255 4.013-.255" fill="#47545B"/><path d="M90.84 108.936s9.897 30.343 10.731 32.412c1.69 4.089 2.331 6.054.462 6.979-1.296.634-2.324.862-3.048-.387-1.965-3.399-4.765-7.896-6.6-11.626-1.551-3.152-6.027-7.903-7.433-10.503-3.82-7.013-2.442-15.413 1.855-16.599 4.048-1.131 4.034-.276 4.034-.276z" stroke="#fff" stroke-width=".46" stroke-miterlimit="3.86"/><path d="M103.923 147.375s7.048-.311 7.586-.497c.538-.186 5.199-2.131 5.199-2.131.352-.282 3.545 1.683 1.207 2.648-.951.393-16.771 9.655-16.771 9.655a5.34 5.34 0 01-1.986-2.959c-.262-.972.69-3.641.69-3.641l4.075-3.075z" fill="#47545B"/><path d="M103.889 147.347s7.089-.31 7.655-.503c.565-.193 5.227-2.145 5.227-2.145.358-.289 3.572 1.697 1.22 2.662-.958.4-16.874 9.737-16.874 9.737a5.362 5.362 0 01-1.993-2.986c-.27-.979.69-3.675.69-3.675l4.075-3.09z" stroke="#fff" stroke-width=".46" stroke-miterlimit="3.86"/><path d="M99.2 148.851a3.103 3.103 0 112.23 2.661 3.097 3.097 0 01-2.23-2.661" fill="#47545B"/><path d="M99.137 148.858a3.16 3.16 0 013.439-3.475 3.156 3.156 0 01.009 6.288 3.158 3.158 0 01-3.448-2.813v0z" stroke="#fff" stroke-width=".46" stroke-miterlimit="3.86"/><path d="M46.617 70.919c3.083-.373 12.206 1.475 12.206 1.475 2.18 1.697 2.248 6.469 2.31 10.282-.51 4.938-1.034 8.669-4.51 11.034-4.647 3.248-4.054 4.827-9.564 1.876-10.572-6.662-4.952-18.468-.442-24.688" fill="#47545B"/><path d="M46.617 70.919c3.083-.373 12.206 1.475 12.206 1.475 2.18 1.697 2.248 6.469 2.31 10.282-.51 4.938-1.034 8.669-4.51 11.034-4.647 3.248-4.054 4.827-9.564 1.876-10.572-6.662-4.952-18.468-.442-24.688" fill="#43525A"/><path d="M46.59 70.864c3.102-.373 12.274 1.482 12.274 1.482 2.193 1.703 2.262 6.496 2.324 10.344-.51 4.958-1.041 8.703-4.537 11.103-4.669 3.262-4.076 4.875-9.614 1.882-10.592-6.716-4.978-18.564-.448-24.811z" stroke="#fff" stroke-width=".46" stroke-miterlimit="3.86"/><path d="M57.044 33.405c-15.171 3.73-8.772 33.756-12.227 40.307 7.82 2.179 10.6 3.448 16.13 5.179 1.717-10.4 7.717-20.654 9.055-25.626 1.613-7.737 1.744-9.572-.752-14.275-3.358-6.323-11.323-5.8-12.206-5.585" fill="#47545B"/><path d="M57.044 33.405c-15.171 3.73-8.772 33.756-12.227 40.307 7.82 2.179 10.6 3.448 16.13 5.179 1.717-10.4 7.717-20.654 9.055-25.626 1.613-7.737 1.744-9.572-.752-14.275-3.358-6.323-11.323-5.8-12.206-5.585" fill="#43525A"/><path d="M57.03 33.35c-15.247 3.744-8.8 33.845-12.275 40.41 7.861 2.193 10.654 3.448 16.206 5.2 1.73-10.427 7.744-20.688 9.095-25.695 1.614-7.758 1.745-9.592-.765-14.31-3.372-6.343-11.372-5.82-12.261-5.606z" stroke="#fff" stroke-width=".46" stroke-miterlimit="3.86"/><path d="M80.539 59.754c6.055-1.469 28.963-.158 28.963-.158 2.4.655.807 2.93-1.069 3.627-3.917 1.455-16.24 3.71-24.253 3.986-5.213.186-6.551-2.248-6.64-3.869-.097-1.952.806-3.055 3.006-3.586" fill="#47545B"/><path d="M80.539 59.754c6.055-1.469 28.963-.158 28.963-.158 2.4.655.807 2.93-1.069 3.627-3.917 1.455-16.24 3.71-24.253 3.986-5.213.186-6.551-2.248-6.64-3.869-.097-1.952.806-3.055 3.006-3.586" fill="#43525A"/><path d="M80.49 59.726c6.083-1.49 29.06-.186 29.06-.186 2.407.69.8 2.965-1.083 3.676-3.924 1.469-16.288 3.758-24.329 4.04-5.234.194-6.579-2.268-6.661-3.91-.097-1.965.813-3.082 3.013-3.62z" stroke="#fff" stroke-width=".46" stroke-miterlimit="3.86"/><path d="M62.54 38.61c7.09 8.917 8.524 11.303 17.605 19.724 2.642 2.71 3.076 5.675 2.07 6.771-1.187 1.338-4.062 1.449-7.51-.6-11.944-7.35-19.068-20.398-19.068-20.398a4.392 4.392 0 01-.083-6.027c1.6-1.814 5.38-1.186 6.958.53" fill="#47545B"/><path d="M62.54 38.61c7.09 8.917 8.524 11.303 17.605 19.724 2.642 2.71 3.076 5.675 2.07 6.771-1.187 1.338-4.062 1.449-7.51-.6-11.944-7.35-19.068-20.398-19.068-20.398a4.392 4.392 0 01-.083-6.027c1.6-1.814 5.38-1.186 6.958.53" fill="#43525A"/><path d="M62.52 38.563c7.116 8.965 8.557 11.344 17.667 19.798 2.655 2.759 3.082 5.696 2.069 6.8-1.186 1.337-4.083 1.455-7.538-.6-11.985-7.38-19.136-20.482-19.136-20.482a4.42 4.42 0 01-.083-6.047c1.634-1.8 5.434-1.2 7.02.53z" stroke="#fff" stroke-width=".46" stroke-miterlimit="3.86"/><path d="M107.827 63.299s-.166-3.393.834-3.89a13.84 13.84 0 018.22-1.124s3.71 4.627 3.448 4.827c-6.958 4.876-12.495.2-12.495.2" fill="#47545B"/><path d="M107.827 63.299s-.166-3.393.834-3.89a13.84 13.84 0 018.22-1.124s3.71 4.627 3.448 4.827c-6.958 4.876-12.495.2-12.495.2" fill="#43525A"/><path d="M107.827 63.299s-.166-3.393.834-3.89a13.84 13.84 0 018.22-1.124s3.71 4.627 3.448 4.827c-6.958 4.876-12.495.2-12.495.2" fill="#43525A"/><path d="M107.771 63.326s-.166-3.448.848-3.951a13.88 13.88 0 018.275-1.138s3.738 4.69 3.448 4.882c-6.985 4.945-12.571.207-12.571.207z" stroke="#fff" stroke-width=".46" stroke-miterlimit="3.86"/><path d="M114.943 58.216c1.593.03 3.17.332 4.661.897.952.31 5.434 8.034 2.8 7.496a7.768 7.768 0 01-4.917-3.276s-2.841-5.227-2.544-5.117" fill="#47545B"/><path d="M114.943 58.216c1.593.03 3.17.332 4.661.897.952.31 5.434 8.034 2.8 7.496a7.768 7.768 0 01-4.917-3.276s-2.841-5.227-2.544-5.117" fill="#43525A"/><path d="M114.895 58.161c-.421-.069 1.8-.076 4.724.903.958.318 5.517 8.145 2.827 7.586a7.835 7.835 0 01-4.972-3.317s-2.882-5.29-2.579-5.172z" stroke="#fff" stroke-width=".46" stroke-miterlimit="3.86"/><path d="M56.534 44.962a4.455 4.455 0 114.942-.237 4.45 4.45 0 01-4.942.237z" fill="#47545B"/><path d="M56.506 45.01a4.51 4.51 0 114.67-7.716 4.51 4.51 0 01-4.67 7.716v0z" stroke="#fff" stroke-width=".46" stroke-miterlimit="3.86"/><path d="M77.476 63.492a3.102 3.102 0 116.094-1.169 3.102 3.102 0 01-6.094 1.169z" fill="#47545B"/><path d="M77.421 63.506a3.159 3.159 0 116.202-1.206 3.159 3.159 0 01-6.202 1.206v0z" stroke="#fff" stroke-width=".46" stroke-miterlimit="3.86"/><path d="M54.83 81.539c15.606 6.758 28.75 17.522 33.515 23.805 2.579 3.406-.276.689-1.338 3.213s-2.517 2.917-4.483 2.359c-6.047-1.724-15.509-4.076-31.032-12.413-2.84-1.524-6.261-3.724-7.068-10.303-.883-7.22 7.144-8.213 10.378-6.668" fill="#47545B"/><path d="M54.83 81.539c15.606 6.758 28.75 17.522 33.515 23.805 2.579 3.406-.276.689-1.338 3.213s-2.517 2.917-4.483 2.359c-6.047-1.724-15.509-4.076-31.032-12.413-2.84-1.524-6.261-3.724-7.068-10.303-.883-7.22 7.144-8.213 10.378-6.668" fill="#43525A"/><path d="M54.802 81.483c15.64 6.786 28.819 17.585 33.59 23.895 2.587 3.448-.275.69-1.337 3.227-1.062 2.538-2.53 2.931-4.503 2.366-6.055-1.731-15.537-4.09-31.074-12.448-2.84-1.53-6.268-3.737-7.075-10.344-.883-7.248 7.158-8.247 10.4-6.696z" stroke="#fff" stroke-width=".46" stroke-miterlimit="3.86"/><path d="M82.167 110.709a4.465 4.465 0 011.343-4.773 4.459 4.459 0 016.791 1.21 4.463 4.463 0 11-8.134 3.563" fill="#47545B"/><path d="M82.118 110.75a4.51 4.51 0 118.58-2.786 4.51 4.51 0 01-8.58 2.786v0z" stroke="#fff" stroke-width=".46" stroke-miterlimit="3.86"/><path d="M69.36 1.172L49.734 85.883m.055.124l67.926 73.043" stroke="#C2D000" stroke-width=".96" stroke-linecap="round" stroke-linejoin="round"/><path d="M101.33 15.061L49.872 86.076" stroke="#C2D000" stroke-width=".96" stroke-linecap="round" stroke-linejoin="round" stroke-dasharray="2.87 1.91"/><path d="M49.94 85.814l37.087 90.648" stroke="#C2D000" stroke-width=".96" stroke-linecap="round" stroke-linejoin="round" stroke-dasharray="2.8 1.84"/><path d="M108.758 10.813v.648h-4.572v-.744l2.923-2.959a2.47 2.47 0 00.862-1.634 1.299 1.299 0 00-.406-.986 1.422 1.422 0 00-1.007-.38 1.38 1.38 0 00-.959.352c-.266.246-.447.57-.517.924l-.69-.145c.095-.495.364-.94.759-1.255a2.234 2.234 0 011.434-.49 2.281 2.281 0 011.531.518 1.766 1.766 0 01.621 1.448c.008.39-.095.776-.297 1.11a5.877 5.877 0 01-.868 1.055l-2.573 2.552 3.759-.014zm2.931-2.786v-.628h.31a2.07 2.07 0 001.207-.317 1.13 1.13 0 00.455-.993 1.269 1.269 0 00-.407-.965 1.526 1.526 0 00-1.925-.068 1.52 1.52 0 00-.44.53l-.614-.324a2.171 2.171 0 012.014-1.131 2.233 2.233 0 011.489.51 1.745 1.745 0 01.6 1.38c.013.379-.109.75-.345 1.048a1.684 1.684 0 01-.896.586 1.8 1.8 0 011.041.606c.275.328.42.745.407 1.173a1.964 1.964 0 01-.69 1.572 2.364 2.364 0 01-1.634.586 2.449 2.449 0 01-1.379-.379 2.337 2.337 0 01-.897-1.083l.69-.255c.107.325.317.607.6.8.286.194.626.296.972.29a1.62 1.62 0 001.111-.414 1.444 1.444 0 00.461-1.117 1.239 1.239 0 00-.53-1.11 2.43 2.43 0 00-1.324-.345l-.276.048zm6.227 167.939v.648h-4.572v-.759l2.924-2.958c.486-.413.792-.999.855-1.634a1.27 1.27 0 00-.407-.987 1.508 1.508 0 00-1.965 0c-.264.247-.443.57-.511.925l-.689-.145c.091-.497.361-.944.758-1.255.404-.33.913-.504 1.435-.49a2.343 2.343 0 011.53.51 1.786 1.786 0 01.614 1.455c.008.39-.092.774-.289 1.111-.248.384-.54.738-.869 1.055l-2.573 2.551 3.759-.027zm2.923-2.786v-.628h.317c.423.02.842-.091 1.2-.317a1.116 1.116 0 00.462-.993 1.25 1.25 0 00-.414-.966 1.507 1.507 0 00-1.292-.348 1.507 1.507 0 00-1.066.811l-.621-.325a2.181 2.181 0 012.021-1.131 2.192 2.192 0 011.489.511 1.742 1.742 0 01.6 1.379c.011.38-.114.751-.351 1.048a1.676 1.676 0 01-.89.586c.406.079.773.293 1.041.607.273.329.415.746.4 1.172a2 2 0 01-.689 1.573 2.397 2.397 0 01-1.635.586 2.461 2.461 0 01-1.379-.379c-.4-.262-.71-.64-.889-1.083l.689-.255c.114.323.326.603.607.8.287.194.626.295.972.29.411.008.809-.143 1.111-.421a1.442 1.442 0 00.462-1.111 1.224 1.224 0 00-.538-1.11 2.395 2.395 0 00-1.317-.345l-.29.049z" fill="#B7CD01"/></svg>