<svg width="186" height="180" fill="none" xmlns="http://www.w3.org/2000/svg"><path d="M62.94 126.354s3.51 4.112 4.076 4.377c.566.265 5.73 2.049 5.73 2.049.48.043.717 3.187-.386 3.173-.38 0-5.73-1.103-10.229-1.827-1.304-.394-8.416-2.865-8.416-2.865a5.667 5.667 0 01.673-3.718c.509-.931 3.18-2.277 3.18-2.277l5.373 1.088z" fill="#47545B"/><path d="M62.94 126.354s3.51 4.112 4.076 4.377c.566.265 5.73 2.049 5.73 2.049.48.043.717 3.187-.386 3.173-.38 0-5.73-1.103-10.229-1.827-1.304-.394-8.416-2.865-8.416-2.865a5.667 5.667 0 01.673-3.718c.509-.931 3.18-2.277 3.18-2.277l5.373 1.088z" fill="#9F9EA0"/><path d="M62.941 126.311s3.524 4.148 4.09 4.42c.566.272 5.766 2.063 5.766 2.063.48.043.716 3.216-.394 3.202-.38 0-5.73-1.111-10.271-1.834-1.311-.394-8.453-2.908-8.453-2.908a5.73 5.73 0 01.674-3.746c.515-.939 3.201-2.307 3.201-2.307l5.387 1.11z" stroke="#fff" stroke-width=".49" stroke-miterlimit="3.86"/><path d="M96.679 98.755s-31.331 26.21-32.843 27.936c-1.51 1.726-3.524 1.984-4.82.981-1.297-1.003-1.927-3.008.716-5.58 2.944-2.865 8.596-8.538 11.604-11.697 2.564-2.672 4.148-7.471 6.218-9.799 5.58-6.296 14.462-8.258 17.19-4.412.59.908 1.254 1.766 1.985 2.564" fill="#47545B"/><path d="M96.679 98.755s-31.331 26.21-32.843 27.936c-1.51 1.726-3.524 1.984-4.82.981-1.297-1.003-1.927-3.008.716-5.58 2.944-2.865 8.596-8.538 11.604-11.697 2.564-2.672 4.148-7.471 6.218-9.799 5.58-6.296 14.462-8.258 17.19-4.412.59.908 1.254 1.766 1.985 2.564" fill="#9F9EA0"/><path d="M96.75 98.727s-31.424 26.266-32.95 28.007c-1.526 1.741-3.539 1.984-4.842.981-1.304-1.003-1.934-3.015.716-5.594 2.958-2.908 8.596-8.553 11.647-11.719 2.564-2.671 4.154-7.485 6.225-9.82 5.594-6.31 14.512-8.28 17.19-4.427.597.913 1.27 1.774 2.013 2.572v0z" stroke="#fff" stroke-width=".49" stroke-miterlimit="3.86"/><path d="M58.371 123.389a3.282 3.282 0 015.71 2.028 3.278 3.278 0 01-1.86 3.131 3.279 3.279 0 01-3.606-.517 3.275 3.275 0 01-.244-4.642z" fill="#47545B"/><path d="M58.371 123.389a3.282 3.282 0 015.71 2.028 3.278 3.278 0 01-1.86 3.131 3.279 3.279 0 01-3.606-.517 3.275 3.275 0 01-.244-4.642z" fill="#9F9EA0"/><path d="M58.342 123.346a3.327 3.327 0 013.578-.909 3.325 3.325 0 11-3.578.909v0z" stroke="#fff" stroke-width=".49" stroke-miterlimit="3.86"/><path d="M63.858 64.653c16.238 7.729 22.255 15.65 28.902 21.639 4.119 3.71 4.706 5.415 3.503 8.015-1.204 2.6-4.434 2.715-6.397 1.805-4.584-2.148-17.076-4.577-29.812-15.178-2.614-2.149-6.783-2.643-7.392-9.62-.673-7.664 7.836-8.416 11.196-6.661z" fill="#47545B"/><path d="M63.858 64.653c16.238 7.729 22.255 15.65 28.902 21.639 4.119 3.71 4.706 5.415 3.503 8.015-1.204 2.6-4.434 2.715-6.397 1.805-4.584-2.148-17.076-4.577-29.812-15.178-2.614-2.149-6.783-2.643-7.392-9.62-.673-7.664 7.836-8.416 11.196-6.661z" fill="#9F9EA0"/><path d="M63.857 64.653c16.267 7.743 22.298 15.687 28.96 21.69 4.126 3.724 4.713 5.436 3.503 8.036-1.21 2.6-4.441 2.722-6.404 1.812-4.591-2.148-17.112-4.584-29.862-15.214-2.63-2.192-6.798-2.65-7.414-9.648-.68-7.708 7.843-8.467 11.217-6.676z" stroke="#fff" stroke-width=".49" stroke-miterlimit="3.86"/><path d="M88.928 94.565a4.713 4.713 0 115.014 4.377 4.7 4.7 0 01-5.014-4.377z" fill="#47545B"/><path d="M88.928 94.565a4.713 4.713 0 115.014 4.377 4.7 4.7 0 01-5.014-4.377z" fill="#9F9EA0"/><path d="M88.863 94.565a4.756 4.756 0 115.079 4.413 4.75 4.75 0 01-5.079-4.413v0z" stroke="#fff" stroke-width=".49" stroke-miterlimit="3.86"/><path d="M9.025 178.83l169.791-.114" stroke="#9F9EA0" stroke-width=".69" stroke-miterlimit="3.86"/><path d="M93.326 162.785l-25.3-24.225a.727.727 0 011.003-1.053l25.3 24.225a.732.732 0 01.177.788.719.719 0 01-.384.403.734.734 0 01-.556.014.72.72 0 01-.24-.152z" fill="#9F9EA0"/><path d="M93.326 162.785l-25.3-24.225a.727.727 0 011.003-1.053l25.3 24.225a.732.732 0 01.177.788.719.719 0 01-.384.403.734.734 0 01-.556.014.72.72 0 01-.24-.152z" fill="#fff"/><path d="M93.326 162.785l-25.3-24.225a.727.727 0 011.003-1.053l25.3 24.225a.732.732 0 01.177.788.719.719 0 01-.384.403.734.734 0 01-.556.014.72.72 0 01-.24-.152z" fill="#CF2542"/><path d="M79.796 150.479a1.596 1.596 0 111.87 1.261 1.59 1.59 0 01-1.87-1.261z" fill="#9F9EA0"/><path d="M79.208 140.422a10.147 10.147 0 0110.392 4.36 10.142 10.142 0 11-10.392-4.36zm.243 1.275a8.852 8.852 0 00-6.98 6.92 8.846 8.846 0 106.98-6.92z" fill="#9F9EA0"/><path d="M79.208 140.422a10.147 10.147 0 0110.392 4.36 10.142 10.142 0 11-10.392-4.36zm.243 1.275a8.852 8.852 0 00-6.98 6.92 8.846 8.846 0 106.98-6.92z" fill="#fff"/><path d="M79.208 140.422a10.147 10.147 0 0110.392 4.36 10.142 10.142 0 11-10.392-4.36zm.243 1.275a8.852 8.852 0 00-6.98 6.92 8.846 8.846 0 106.98-6.92z" fill="#CF2542"/><path d="M79.738 150.522a1.595 1.595 0 011.573-1.905 1.594 1.594 0 011.473.993 1.597 1.597 0 01-1.177 2.173 1.595 1.595 0 01-1.198-.239 1.587 1.587 0 01-.671-1.022zm-43.207-44.603a36.531 36.531 0 11.002 73.062 36.531 36.531 0 01-.002-73.062zm0 2.922a33.59 33.59 0 00-31.037 20.738 33.596 33.596 0 0043.893 43.893 33.591 33.591 0 0010.899-54.791 33.595 33.595 0 00-23.755-9.84z" fill="#9F9EA0"/><path d="M36.531 105.919a36.531 36.531 0 11.002 73.062 36.531 36.531 0 01-.002-73.062zm0 2.922a33.59 33.59 0 00-31.037 20.738 33.596 33.596 0 0043.893 43.893 33.591 33.591 0 0010.899-54.791 33.595 33.595 0 00-23.755-9.84z" fill="#fff"/><path d="M36.531 105.919a36.531 36.531 0 11.002 73.062 36.531 36.531 0 01-.002-73.062zm0 2.922a33.59 33.59 0 00-31.037 20.738 33.596 33.596 0 0043.893 43.893 33.591 33.591 0 0010.899-54.791 33.595 33.595 0 00-23.755-9.84z" fill="#CF2542"/><path d="M148.853 105.933a36.534 36.534 0 0133.75 22.551 36.525 36.525 0 012.079 21.106 36.524 36.524 0 01-28.702 28.703 36.528 36.528 0 01-43.658-35.829 36.532 36.532 0 0136.531-36.531zm0 2.922a33.592 33.592 0 00-32.948 40.148 33.593 33.593 0 1032.948-40.148z" fill="#9F9EA0"/><path d="M148.853 105.933a36.534 36.534 0 0133.75 22.551 36.525 36.525 0 012.079 21.106 36.524 36.524 0 01-28.702 28.703 36.528 36.528 0 01-43.658-35.829 36.532 36.532 0 0136.531-36.531zm0 2.922a33.592 33.592 0 00-32.948 40.148 33.593 33.593 0 1032.948-40.148z" fill="#fff"/><path d="M148.853 105.933a36.534 36.534 0 0133.75 22.551 36.525 36.525 0 012.079 21.106 36.524 36.524 0 01-28.702 28.703 36.528 36.528 0 01-43.658-35.829 36.532 36.532 0 0136.531-36.531zm0 2.922a33.592 33.592 0 00-32.948 40.148 33.593 33.593 0 1032.948-40.148z" fill="#CF2542"/><path d="M124.162 88.04c-.079-.516-.279-1.848-.716-3.582-.308-1.31-.953-3.13-.953-3.13s-.329-.652 1.182-.652c1.239 0 7.629-.358 9.713-.501a3.458 3.458 0 013.259-2.314c1.92 0 3.746 2.944 3.746 4.857 0 .673-13.38 1.618-13.38 1.618l.573 2.493-3.424 1.21z" fill="#9F9EA0"/><path d="M124.162 88.04c-.079-.516-.279-1.848-.716-3.582-.308-1.31-.953-3.13-.953-3.13s-.329-.652 1.182-.652c1.239 0 7.629-.358 9.713-.501a3.458 3.458 0 013.259-2.314c1.92 0 3.746 2.944 3.746 4.857 0 .673-13.38 1.618-13.38 1.618l.573 2.493-3.424 1.21z" fill="#fff"/><path d="M124.162 88.04c-.079-.516-.279-1.848-.716-3.582-.308-1.31-.953-3.13-.953-3.13s-.329-.652 1.182-.652c1.239 0 7.629-.358 9.713-.501a3.458 3.458 0 013.259-2.314c1.92 0 3.746 2.944 3.746 4.857 0 .673-13.38 1.618-13.38 1.618l.573 2.493-3.424 1.21z" fill="#CF2542"/><path d="M124.113 88.111c-.079-.523-.28-1.862-.717-3.581-.315-1.333-.96-3.174-.96-3.174s-.329-.658 1.189-.658c1.247 0 7.679-.366 9.771-.516a3.49 3.49 0 013.287-2.335c1.927 0 3.768 2.972 3.768 4.913 0 .717-13.466 1.648-13.466 1.648l.573 2.521-3.445 1.182z" stroke="#fff" stroke-width=".68" stroke-miterlimit="3.86"/><path d="M79.036 149.348a2.404 2.404 0 011.486-2.224 2.407 2.407 0 11.92 4.63 2.395 2.395 0 01-2.226-1.483 2.393 2.393 0 01-.18-.923z" fill="#9F9EA0"/><path d="M78.972 149.347a2.473 2.473 0 011.52-2.288 2.469 2.469 0 012.696.531 2.471 2.471 0 01-2.69 4.036 2.458 2.458 0 01-1.338-1.334 2.463 2.463 0 01-.188-.945v0z" stroke="#fff" stroke-width=".68" stroke-miterlimit="3.86"/><path d="M49.438 75.756c1.576 0 2.1.4 8.818.286 6.719-.115 15.472 2.385 10.214 2.529-5.916.164-2.213.924-6.504 2.457-3.581 1.274-3.445 1.87-5.092 1.339 0 0-2.15-2.794-8.84-4.298-1.432-.33-1.031-.895-.601-1.526.43-.63 1.54-.716 2.005-.759" fill="#9F9EA0"/><path d="M49.438 75.756c1.576 0 2.1.4 8.818.286 6.719-.115 15.472 2.385 10.214 2.529-5.916.164-2.213.924-6.504 2.457-3.581 1.274-3.445 1.87-5.092 1.339 0 0-2.15-2.794-8.84-4.298-1.432-.33-1.031-.895-.601-1.526.43-.63 1.54-.716 2.005-.759" fill="#fff"/><path d="M49.438 75.756c1.576 0 2.1.4 8.818.286 6.719-.115 15.472 2.385 10.214 2.529-5.916.164-2.213.924-6.504 2.457-3.581 1.274-3.445 1.87-5.092 1.339 0 0-2.15-2.794-8.84-4.298-1.432-.33-1.031-.895-.601-1.526.43-.63 1.54-.716 2.005-.759" fill="#CF2542"/><path d="M77.832 150.214a3.583 3.583 0 014.28-3.513 3.588 3.588 0 012.814 2.814 3.585 3.585 0 01-1.523 3.677 3.585 3.585 0 01-4.522-.445 3.583 3.583 0 01-1.049-2.533z" fill="#9F9EA0"/><path d="M77.832 150.214a3.583 3.583 0 014.28-3.513 3.588 3.588 0 012.814 2.814 3.585 3.585 0 01-1.523 3.677 3.585 3.585 0 01-4.522-.445 3.583 3.583 0 01-1.049-2.533z" fill="#fff"/><path d="M77.832 150.214a3.583 3.583 0 014.28-3.513 3.588 3.588 0 012.814 2.814 3.585 3.585 0 01-1.523 3.677 3.585 3.585 0 01-4.522-.445 3.583 3.583 0 01-1.049-2.533z" fill="#CF2542"/><path d="M39.503 140.959l40.113 7.5-11.569-41.695c-.085.086-28.837 33.916-28.837 33.916l.293.279zm86.156-46.702c-.057 0-40.184 6.447-52.633 8.395-1.662.258-2.15-.265-2.106 1.11L82.56 145.4l43.844-48.493a23.106 23.106 0 00-.716-2.65M65.039 95.97l3.503-1.21.78 2.721c.717 1.433 1.433 1.555 1.433 1.555l53.221-8.38s.387 0 .451-.53l-.308-.918 4.348-1.518.444 1.296a5.52 5.52 0 00.351 2.715l2.865 8.803c.416 1.282 1.01 1.433 1.01 1.433l.516 1.325-4.663 1.633a4.406 4.406 0 01-.115-1.067c-.336-1.082-.573-1.812-.573-1.812l-44.174 49.116-1.49 1.261-43.851-9.047s-1.282-2.865-2.077-2.865c-.796 0-.05-.151-.05-.151s29.898-35.943 29.898-36.101a2.564 2.564 0 00.38-2.041l-1.899-6.218zm68.721 8.596c.144.558-.465 1.346.538 3.416.487 1.046 14.512 31.517 14.512 31.517.752 1.347.544 2.815 0 3.181-1.519.995-2.959-1.003-2.959-1.003l-16.367-31.668c-.53-1.002-.537-3.395-.494-3.703l4.77-1.74z" fill="#9F9EA0"/><path d="M39.503 140.959l40.113 7.5-11.569-41.695c-.085.086-28.837 33.916-28.837 33.916l.293.279zm86.156-46.702c-.057 0-40.184 6.447-52.633 8.395-1.662.258-2.15-.265-2.106 1.11L82.56 145.4l43.844-48.493a23.106 23.106 0 00-.716-2.65M65.039 95.97l3.503-1.21.78 2.721c.717 1.433 1.433 1.555 1.433 1.555l53.221-8.38s.387 0 .451-.53l-.308-.918 4.348-1.518.444 1.296a5.52 5.52 0 00.351 2.715l2.865 8.803c.416 1.282 1.01 1.433 1.01 1.433l.516 1.325-4.663 1.633a4.406 4.406 0 01-.115-1.067c-.336-1.082-.573-1.812-.573-1.812l-44.174 49.116-1.49 1.261-43.851-9.047s-1.282-2.865-2.077-2.865c-.796 0-.05-.151-.05-.151s29.898-35.943 29.898-36.101a2.564 2.564 0 00.38-2.041l-1.899-6.218zm68.721 8.596c.144.558-.465 1.346.538 3.416.487 1.046 14.512 31.517 14.512 31.517.752 1.347.544 2.815 0 3.181-1.519.995-2.959-1.003-2.959-1.003l-16.367-31.668c-.53-1.002-.537-3.395-.494-3.703l4.77-1.74z" fill="#fff"/><path d="M39.503 140.959l40.113 7.5-11.569-41.695c-.085.086-28.837 33.916-28.837 33.916l.293.279zm86.156-46.702c-.057 0-40.184 6.447-52.633 8.395-1.662.258-2.15-.265-2.106 1.11L82.56 145.4l43.844-48.493a23.106 23.106 0 00-.716-2.65M65.039 95.97l3.503-1.21.78 2.721c.717 1.433 1.433 1.555 1.433 1.555l53.221-8.38s.387 0 .451-.53l-.308-.918 4.348-1.518.444 1.296a5.52 5.52 0 00.351 2.715l2.865 8.803c.416 1.282 1.01 1.433 1.01 1.433l.516 1.325-4.663 1.633a4.406 4.406 0 01-.115-1.067c-.336-1.082-.573-1.812-.573-1.812l-44.174 49.116-1.49 1.261-43.851-9.047s-1.282-2.865-2.077-2.865c-.796 0-.05-.151-.05-.151s29.898-35.943 29.898-36.101a2.564 2.564 0 00.38-2.041l-1.899-6.218zm68.721 8.596c.144.558-.465 1.346.538 3.416.487 1.046 14.512 31.517 14.512 31.517.752 1.347.544 2.815 0 3.181-1.519.995-2.959-1.003-2.959-1.003l-16.367-31.668c-.53-1.002-.537-3.395-.494-3.703l4.77-1.74z" fill="#CF2542"/><path d="M61.2 81.17l2.78-.601 3.767 13.144-2.707.852L61.2 81.17zm18.086 68.8a2.092 2.092 0 111.292 1.928 2.088 2.088 0 01-1.292-1.928z" fill="#9F9EA0"/><path d="M79.23 149.971a2.149 2.149 0 114.297 0 2.149 2.149 0 01-4.297 0z" stroke="#fff" stroke-width=".68" stroke-miterlimit="3.86"/><path d="M97.906 159.221l-9.522 2.374.657 2.634 9.521-2.374-.656-2.634z" fill="#9F9EA0"/><path d="M97.906 159.221l-9.522 2.374.657 2.634 9.521-2.374-.656-2.634z" fill="#fff"/><path d="M97.906 159.221l-9.522 2.374.657 2.634 9.521-2.374-.656-2.634z" fill="#CF2542"/><path d="M88.269 161.611l9.67-2.443.666 2.708-9.67 2.442-.666-2.707z" stroke="#fff" stroke-width=".72" stroke-miterlimit="3.86"/><path d="M62.613 134.802l-.45 2.547 9.205 1.626.45-2.546-9.205-1.627z" fill="#9F9EA0"/><path d="M62.613 134.802l-.45 2.547 9.205 1.626.45-2.546-9.205-1.627z" fill="#fff"/><path d="M62.613 134.802l-.45 2.547 9.205 1.626.45-2.546-9.205-1.627z" fill="#CF2542"/><path d="M79.4 148.896a2.37 2.37 0 11.052 2.627 2.366 2.366 0 01-.051-2.627z" fill="#9F9EA0"/><path d="M79.4 148.896a2.37 2.37 0 11.052 2.627 2.366 2.366 0 01-.051-2.627z" fill="#fff"/><path d="M79.4 148.896a2.37 2.37 0 11.052 2.627 2.366 2.366 0 01-.051-2.627z" fill="#CF2542"/><path d="M79.351 148.86a2.426 2.426 0 012.46-1.103 2.422 2.422 0 011.963 1.848 2.43 2.43 0 01-2.289 2.973 2.435 2.435 0 01-2.053-1.015 2.426 2.426 0 01-.081-2.703z" stroke="#fff" stroke-width=".68" stroke-miterlimit="3.86"/><path d="M145.794 141.826a2.11 2.11 0 012.534-2.034 2.106 2.106 0 011.65 1.649 2.114 2.114 0 11-4.184.385z" fill="#9F9EA0"/><path d="M145.794 141.826a2.11 2.11 0 012.534-2.034 2.106 2.106 0 011.65 1.649 2.114 2.114 0 11-4.184.385z" fill="#fff"/><path d="M145.73 141.826a2.153 2.153 0 011.327-1.985 2.147 2.147 0 012.93 1.566 2.15 2.15 0 11-4.257.419z" fill="#CF2542" stroke="#fff" stroke-width=".78" stroke-miterlimit="3.86"/><path d="M39.382 145.422c.63.537 5.236 4.699 5.236 4.699l-1.333 1.619-7.32-6.447a2.868 2.868 0 013.417.122" fill="#9F9EA0"/><path d="M39.382 145.422c.63.537 5.236 4.699 5.236 4.699l-1.333 1.619-7.32-6.447a2.868 2.868 0 013.417.122" fill="#fff"/><path d="M39.382 145.422c.63.537 5.236 4.699 5.236 4.699l-1.333 1.619-7.32-6.447a2.868 2.868 0 013.417.122" fill="#CF2542"/><path d="M38.071 156.797a1.902 1.902 0 011.173-1.766 1.901 1.901 0 012.491 2.491 1.909 1.909 0 01-3.108.617 1.898 1.898 0 01-.556-1.342z" fill="#9F9EA0"/><path d="M38.071 156.797a1.902 1.902 0 011.173-1.766 1.901 1.901 0 012.491 2.491 1.909 1.909 0 01-3.108.617 1.898 1.898 0 01-.556-1.342z" fill="#fff"/><path d="M38.071 156.797a1.902 1.902 0 011.173-1.766 1.901 1.901 0 012.491 2.491 1.909 1.909 0 01-3.108.617 1.898 1.898 0 01-.556-1.342z" fill="#CF2542"/><path d="M35.328 141.833a2.116 2.116 0 011.292-1.953 2.112 2.112 0 11-1.292 1.953z" fill="#9F9EA0"/><path d="M35.328 141.833a2.116 2.116 0 011.292-1.953 2.112 2.112 0 11-1.292 1.953z" fill="#fff"/><path d="M35.328 141.833a2.116 2.116 0 011.292-1.953 2.112 2.112 0 11-1.292 1.953z" fill="#CF2542"/><path d="M35.264 141.833a2.145 2.145 0 011.326-1.985 2.154 2.154 0 012.342.466 2.145 2.145 0 01.466 2.342 2.15 2.15 0 01-4.134-.823v0z" stroke="#fff" stroke-width=".78" stroke-miterlimit="3.86"/><path d="M136.998 83.785a2.763 2.763 0 013.304-2.712 2.764 2.764 0 11-3.304 2.712z" fill="#9F9EA0"/><path d="M136.998 83.785a2.763 2.763 0 013.304-2.712 2.764 2.764 0 11-3.304 2.712z" fill="#fff"/><path d="M136.998 83.785a2.763 2.763 0 013.304-2.712 2.764 2.764 0 11-3.304 2.712z" fill="#CF2542"/><path d="M79.945 159.877l-40.205-1.734-.394-2.7c.093-.136 3.796-4.24 3.796-4.24l-6.446-5.91s-3.123-1.898-2.15-4.505c.853-2.35 3.489-1.877 3.489-1.877l30.084 2.271" stroke="#9F9EA0" stroke-width=".99" stroke-linecap="round" stroke-linejoin="round"/><path d="M79.945 159.877l-40.205-1.734-.394-2.7c.093-.136 3.796-4.24 3.796-4.24l-6.446-5.91s-3.123-1.898-2.15-4.505c.853-2.35 3.489-1.877 3.489-1.877l30.084 2.271" stroke="#fff" stroke-width=".99" stroke-linecap="round" stroke-linejoin="round"/><path d="M79.945 159.877l-40.205-1.734-.394-2.7c.093-.136 3.796-4.24 3.796-4.24l-6.446-5.91s-3.123-1.898-2.15-4.505c.853-2.35 3.489-1.877 3.489-1.877l30.084 2.271" stroke="#CF2542" stroke-width=".99" stroke-linecap="round" stroke-linejoin="round"/><path d="M104.794 60.592c6.261 2.084 20.415 12.764 25.708 14.684 1.784 1.934-.58 4.104-2.622 3.581-6.067-1.647-18.523-6.754-23.2-9.792-4.678-3.037-5.416-5.415-4.585-6.919 1.003-1.798 2.436-2.285 4.699-1.526" fill="#47545B"/><path d="M104.794 60.592c6.261 2.084 20.415 12.764 25.708 14.684 1.784 1.934-.58 4.104-2.622 3.581-6.067-1.647-18.523-6.754-23.2-9.792-4.678-3.037-5.416-5.415-4.585-6.919 1.003-1.798 2.436-2.285 4.699-1.526" fill="#9F9EA0"/><path d="M104.772 60.548c6.268 2.092 20.458 12.822 25.787 14.756 1.791 1.941-.58 4.119-2.629 3.581-6.081-1.647-18.573-6.783-23.258-9.834-4.684-3.052-5.43-5.444-4.591-6.948.981-1.827 2.414-2.314 4.691-1.555z" stroke="#fff" stroke-width=".49" stroke-miterlimit="3.86"/><path d="M101.928 18.932c-.809 3.818-5.465 5.014-5.558 5.078-.473-.315.902 2.192 2.908 4.105 1.583 1.504 2.7.587 2.7.587a13.397 13.397 0 004.656-4.448c-2.571-2.235-4.634-4.298-4.706-5.322z" fill="#47545B"/><path d="M101.928 18.932c-.809 3.818-5.465 5.014-5.558 5.078-.473-.315.902 2.192 2.908 4.105 1.583 1.504 2.7.587 2.7.587a13.397 13.397 0 004.656-4.448c-2.571-2.235-4.634-4.298-4.706-5.322z" fill="#9F9EA0"/><path d="M101.936 18.925c-.816 3.84-5.515 5.014-5.608 5.1-.48-.315.91 2.206 2.936 4.126 1.598 1.518 2.729.594 2.729.594a13.608 13.608 0 004.692-4.47c-2.593-2.249-4.677-4.319-4.749-5.35z" stroke="#fff" stroke-width=".49" stroke-miterlimit="3.86"/><path d="M63.721 52.684c3.045 1.224 10.544 7.621 10.544 7.621 1.14 2.686-.358 6.99-2.45 10.601-2.435 4.104-6.095 7.586-10.543 8.015-8.28-1.01-10.451-5.128-10.451-5.128-5.014-7.507 2.013-16.231 12.893-21.11" fill="#47545B"/><path d="M63.721 52.684c3.045 1.224 10.544 7.621 10.544 7.621 1.14 2.686-.358 6.99-2.45 10.601-2.435 4.104-6.095 7.586-10.543 8.015-8.28-1.01-10.451-5.128-10.451-5.128-5.014-7.507 2.013-16.231 12.893-21.11" fill="#9F9EA0"/><path d="M63.722 52.633c3.058 1.24 10.58 7.65 10.58 7.65 1.145 2.7-.352 7.02-2.458 10.637-2.435 4.119-6.11 7.614-10.572 8.044-8.31-1.01-10.487-5.143-10.487-5.143-5.014-7.535 2.02-16.295 12.937-21.188z" stroke="#fff" stroke-width=".49" stroke-miterlimit="3.86"/><path d="M97.33 23.587c-18.56-8.13-30.521 28.717-38.522 31.854 4.297 1.19 12.262 8.954 14.39 12.292 4.298-5.981 21.41-18.216 23.595-21.49 5.014-5.593 5.58-8.552 5.522-12.563-.422-6.11-3.316-9.376-5.014-10.107" fill="#47545B"/><path d="M97.33 23.587c-18.56-8.13-30.521 28.717-38.522 31.854 4.297 1.19 12.262 8.954 14.39 12.292 4.298-5.981 21.41-18.216 23.595-21.49 5.014-5.593 5.58-8.552 5.522-12.563-.422-6.11-3.316-9.376-5.014-10.107" fill="#9F9EA0"/><path d="M97.352 23.552c-18.624-8.152-30.643 28.78-38.68 31.925 4.298 1.189 12.32 8.982 14.448 12.328 4.297-6.003 21.488-18.266 23.687-21.532 5.014-5.609 5.609-8.596 5.544-12.593-.415-6.124-3.323-9.398-5-10.128z" stroke="#fff" stroke-width=".49" stroke-miterlimit="3.86"/><path d="M106.986 1.411c-1.805.323-9.262 3.116-7.578 12.671 1.683 9.556 9.025 15.007 20.421 13.001 3.181-.558 4.921-10.744 2.744-18.301-2.593-9.004-12.306-7.951-15.587-7.37z" fill="#47545B"/><path d="M106.986 1.411c-1.805.323-9.262 3.116-7.578 12.671 1.683 9.556 9.025 15.007 20.421 13.001 3.181-.558 4.921-10.744 2.744-18.301-2.593-9.004-12.306-7.951-15.587-7.37z" fill="#9F9EA0"/><path d="M106.971 1.368c-1.812.323-9.312 3.123-7.6 12.714 1.712 9.592 9.054 15.043 20.486 13.037 3.195-.559 4.936-10.744 2.751-18.359-2.6-9.032-12.342-7.972-15.637-7.392z" stroke="#fff" stroke-width=".49" stroke-miterlimit="3.86"/><path d="M97.222 30.8c2.192 11.848 2.78 16.067 7.078 28.452 1.117 3.846.193 4.8-1.261 5.336-1.769.66-3.632.115-5.83-3.517-4.241-7.02-9.205-28.551-9.205-28.551-.717-2.607 1.246-4.892 3.366-5.688 2.4-.902 5.23 1.576 5.852 3.969z" fill="#47545B"/><path d="M97.222 30.8c2.192 11.848 2.78 16.067 7.078 28.452 1.117 3.846.193 4.8-1.261 5.336-1.769.66-3.632.115-5.83-3.517-4.241-7.02-9.205-28.551-9.205-28.551-.717-2.607 1.246-4.892 3.366-5.688 2.4-.902 5.23 1.576 5.852 3.969z" fill="#9F9EA0"/><path d="M97.222 30.765c2.206 11.876 2.794 16.11 7.106 28.515 1.132 3.854.208 4.814-1.261 5.351-1.776.659-3.646.115-5.852-3.524-4.298-7.041-9.247-28.652-9.247-28.652-.717-2.614 1.246-4.906 3.373-5.73 2.414-.838 5.258 1.64 5.881 4.04z" stroke="#fff" stroke-width=".49" stroke-miterlimit="3.86"/><path d="M88.549 32.376a4.713 4.713 0 116.446 1.727 4.707 4.707 0 01-6.446-1.727z" fill="#47545B"/><path d="M88.549 32.376a4.713 4.713 0 116.446 1.727 4.707 4.707 0 01-6.446-1.727z" fill="#9F9EA0"/><path d="M88.512 32.42a4.756 4.756 0 114.74 2.339 4.75 4.75 0 01-4.74-2.34v0z" stroke="#fff" stroke-width=".49" stroke-miterlimit="3.86"/><path d="M99.593 62.31a3.277 3.277 0 012.565-2.589 3.281 3.281 0 11-2.565 2.59z" fill="#47545B"/><path d="M99.593 62.31a3.277 3.277 0 012.565-2.589 3.281 3.281 0 11-2.565 2.59z" fill="#9F9EA0"/><path d="M99.55 62.296a3.332 3.332 0 014.53-2.45c.61.25 1.132.674 1.5 1.22a3.327 3.327 0 01.018 3.701 3.329 3.329 0 01-5.538.027 3.329 3.329 0 01-.51-2.498z" stroke="#fff" stroke-width=".49" stroke-miterlimit="3.86"/><path d="M73.628 118.038s2.787 37.77 3.08 40.055c.602 4.62.2 5.409-1.948 5.838a3.022 3.022 0 01-3.388-2.206c-1.075-4.004-2.213-10.415-3.059-14.72-.716-3.631-3.968-9.691-4.699-12.728-1.962-8.188 1.146-17.041 5.845-17.077 4.42 0 4.17.838 4.17.838z" fill="#47545B"/><path d="M73.628 118.038s2.787 37.77 3.08 40.055c.602 4.62.2 5.409-1.948 5.838a3.022 3.022 0 01-3.388-2.206c-1.075-4.004-2.213-10.415-3.059-14.72-.716-3.631-3.968-9.691-4.699-12.728-1.962-8.188 1.146-17.041 5.845-17.077 4.42 0 4.17.838 4.17.838z" fill="#9F9EA0"/><path d="M73.635 117.995s2.808 37.842 3.108 40.113c.602 4.627.208 5.415-1.955 5.845a3.04 3.04 0 01-3.41-2.214c-1.074-4.004-2.22-10.429-3.08-14.741-.716-3.639-3.99-9.713-4.72-12.75-1.97-8.209 1.146-17.076 5.866-17.112 4.441-.007 4.19.859 4.19.859z" stroke="#fff" stroke-width=".49" stroke-miterlimit="3.86"/><path d="M76.693 163.91s2.944 10.673 3.174 10.952c.05.057 2.621.516 2.621.516.409.258-.086 3.022-.086 2.822 0 0-4.462.05-4.498 0l-11.095-15.293s.121-.895 1.97-2.149c.88-.602 3.216-.924 3.216-.924l4.698 4.076z" fill="#47545B"/><path d="M76.693 163.91s2.944 10.673 3.174 10.952c.05.057 2.621.516 2.621.516.409.258-.086 3.022-.086 2.822 0 0-4.462.05-4.498 0l-11.095-15.293s.121-.895 1.97-2.149c.88-.602 3.216-.924 3.216-.924l4.698 4.076z" fill="#9F9EA0"/><path d="M76.7 163.881s2.959 10.744 3.188 11.002c.05.058 2.643.523 2.643.523.401.258-.093 3.037-.093 2.865 0 0-4.477.051-4.52 0-.043-.05-11.152-15.371-11.152-15.371s.121-.903 1.984-2.149c.88-.602 3.23-.924 3.23-.924l4.72 4.054z" stroke="#fff" stroke-width=".49" stroke-miterlimit="3.86"/><path d="M71.057 161.51a3.29 3.29 0 012.571-2.595 3.287 3.287 0 11.029 6.449 3.281 3.281 0 01-2.598-2.57 3.276 3.276 0 01-.002-1.284z" fill="#47545B"/><path d="M71.057 161.51a3.29 3.29 0 012.571-2.595 3.287 3.287 0 11.029 6.449 3.281 3.281 0 01-2.598-2.57 3.276 3.276 0 01-.002-1.284z" fill="#9F9EA0"/><path d="M71.02 161.503a3.323 3.323 0 112.63 3.903 3.31 3.31 0 01-2.628-2.604 3.312 3.312 0 01-.001-1.299v0z" stroke="#fff" stroke-width=".49" stroke-miterlimit="3.86"/><path d="M68.156 69.165c5.437 17.149 5.63 37.491 5.179 44.411-.294 4.512-2.192 3.71-4.549 3.581-2.865-.114-3.947-3.581-4.863-5.522-2.815-6.024-7.507-15.207-11.619-33.365-.716-3.324-2.048-8.345 2.765-13.445 4.377-4.649 12.077.652 13.087 4.297" fill="#47545B"/><path d="M68.156 69.165c5.437 17.149 5.63 37.491 5.179 44.411-.294 4.512-2.192 3.71-4.549 3.581-2.865-.114-3.947-3.581-4.863-5.522-2.815-6.024-7.507-15.207-11.619-33.365-.716-3.324-2.048-8.345 2.765-13.445 4.377-4.649 12.077.652 13.087 4.297" fill="#9F9EA0"/><path d="M68.198 69.13c5.459 17.19 5.652 37.555 5.2 44.474-.293 4.527-2.198 3.725-4.555 3.625-2.865-.115-3.96-3.582-4.885-5.53-2.83-6.031-7.535-15.236-11.654-33.422-.76-3.324-2.063-8.36 2.758-13.467 4.398-4.648 12.127.66 13.136 4.32z" stroke="#fff" stroke-width=".49" stroke-miterlimit="3.86"/><path d="M64.775 115.424a4.718 4.718 0 014.328-2.946 4.713 4.713 0 11-1.721 9.084 4.714 4.714 0 01-2.953-4.33 4.701 4.701 0 01.346-1.808z" fill="#47545B"/><path d="M64.775 115.424a4.718 4.718 0 014.328-2.946 4.713 4.713 0 11-1.721 9.084 4.714 4.714 0 01-2.953-4.33 4.701 4.701 0 01.346-1.808z" fill="#9F9EA0"/><path d="M64.732 115.402a4.753 4.753 0 014.366-2.973 4.753 4.753 0 014.42 2.894 4.756 4.756 0 01-6.15 6.275 4.737 4.737 0 01-2.606-2.55 4.749 4.749 0 01-.03-3.646z" stroke="#fff" stroke-width=".49" stroke-miterlimit="3.86"/><path d="M127.902 79.05s-.251-3.345 2.392-4.004c4.298-1.067 8.703 1.11 8.703 1.11s-.179 4.162-.508 4.298c-7.163 2.343-10.587-1.375-10.587-1.375" fill="#47545B"/><path d="M127.902 79.05s-.251-3.345 2.392-4.004c4.298-1.067 8.703 1.11 8.703 1.11s-.179 4.162-.508 4.298c-7.163 2.343-10.587-1.375-10.587-1.375" fill="#9F9EA0"/><path d="M127.859 79.072s-.251-3.388 2.407-4.054c4.297-1.089 8.781 1.11 8.781 1.11s-.186 4.219-.523 4.298c-7.248 2.406-10.665-1.354-10.665-1.354z" stroke="#fff" stroke-width=".49" stroke-miterlimit="3.86"/><path d="M138.731 76.25s2.522.716 3.747 2.149c2.865 3.259.637 8.595-.516 5.974-2.149-4.857-4.513-3.718-4.513-3.718l1.282-4.405z" fill="#47545B"/><path d="M138.731 76.25s2.522.716 3.747 2.149c2.865 3.259.637 8.595-.516 5.974-2.149-4.857-4.513-3.718-4.513-3.718l1.282-4.405z" fill="#9F9EA0"/><path d="M138.689 76.2s2.564.716 3.811 2.148c2.865 3.295.644 8.66-.53 6.039-2.192-4.914-4.577-3.76-4.577-3.76l1.296-4.427z" stroke="#fff" stroke-width=".49" stroke-miterlimit="3.86"/></svg>