<svg width="196" height="181" fill="none" xmlns="http://www.w3.org/2000/svg"><path d="M54.925 80.118c17.312 3.097 25.71 9.407 33.301 13.659 7.07 3.95 8.002 5.608 7.522 8.298-.481 2.69-5.726 1.885-7.812 1.534-4.87-.832-12.85-.97-32.517-7.569-3.152-1.06-6.828-2.346-8.129-6.722-2.12-7.04 3.98-9.984 7.606-9.193" fill="#47545B"/><path d="M54.893 79.124C72.217 82.35 80.625 88.91 88.228 93.37c7.06 4.103 8.005 5.834 7.518 8.626-.487 2.793-5.732 1.966-7.822 1.603-4.87-.862-12.855-1.004-32.516-7.836-3.148-1.104-6.826-2.443-8.125-6.995-2.097-7.394 3.981-10.442 7.61-9.644z" stroke="#fff" stroke-width=".46" stroke-miterlimit="3.86"/><path d="M74.4 138.057s2.084 4.89 2.585 5.248c.5.359 5.676 1.589 5.676 1.589.438.131.125 3.308-.903 3.096-.354-.073-4.169-.549-8.456-.827-.653-.732-8.449-5.856-8.449-5.856a5.955 5.955 0 011.258-3.587c.64-.842 3.398-1.72 3.398-1.72l4.891 2.057z" fill="#47545B"/><path d="M73.933 138.074s2.188 4.879 2.728 5.24c.54.361 5.988 1.583 5.988 1.583.466.123.13 3.303-.956 3.093-.372-.079-4.427-.549-8.927-.831-.686-.723-8.913-5.825-8.913-5.825a5.686 5.686 0 011.328-3.614c.67-.838 3.58-1.72 3.58-1.72l5.172 2.074z" stroke="#fff" stroke-width=".46" stroke-miterlimit="3.86"/><path d="M93.976 106.866s-15.478 24.403-16.504 26.385c-2.088 4.006-3.121 5.334-5.144 4.521-1.402-.564-2.313-2.031-.326-6.711 1.568-3.686 2.414-5.745 4.119-9.633 1.445-3.282 1.835-8.449 2.695-11.335 1.756-5.877 10.116-12.018 14.054-9.521 3.685 2.35 1.106 6.259 1.106 6.259" fill="#47545B"/><path d="M93.985 106.89s-15.444 24.405-16.514 26.354c-2.082 4.009-3.116 5.341-5.134 4.529-1.436-.569-2.312-2.039-.323-6.72 1.558-3.69 2.406-5.743 4.107-9.626 1.436-3.281 1.831-8.455 2.693-11.34 1.745-5.874 10.124-12.012 14.037-9.515 3.705 2.379 1.134 6.318 1.134 6.318z" stroke="#fff" stroke-width=".46" stroke-miterlimit="3.86"/><path d="M87.416 103.675a4.498 4.498 0 015.18-6.5 4.5 4.5 0 013.229 3.814 4.495 4.495 0 01-2.29 4.442 4.48 4.48 0 01-3.425.395 4.488 4.488 0 01-2.694-2.151z" fill="#47545B"/><path d="M87.411 104.409a5.464 5.464 0 01-.541-2.835 5.321 5.321 0 01.966-2.693 4.523 4.523 0 012.149-1.644 4.073 4.073 0 012.609-.043 4.485 4.485 0 012.192 1.572 5.288 5.288 0 011.038 2.659 5.481 5.481 0 01-.465 2.852 4.803 4.803 0 01-1.811 2.086 4.206 4.206 0 01-1.678.604 4.077 4.077 0 01-1.757-.16 4.351 4.351 0 01-1.567-.899 4.907 4.907 0 01-1.135-1.499v0z" stroke="#fff" stroke-width=".46" stroke-miterlimit="3.86"/><path d="M131.854 89.2a57.697 57.697 0 00-6.138.573c-11.843 2.148-19.683 6.673-29.38 13.346-7.062 4.839-14.59 10.574-21.59 15.479-.925.644-2.062.845-2.98 1.496-11.37 7.983-22.515 15.98-33.984 23.906l-1.928-.924s18.588-14.04 37.176-27.041c7.43-5.206 14.916-10.532 21.315-14.935 12.296-8.463 20.933-13.66 36.28-15.1l1.229 3.2z" fill="#9F9EA0"/><path d="M131.854 89.2a57.697 57.697 0 00-6.138.573c-11.843 2.148-19.683 6.673-29.38 13.346-7.062 4.839-14.59 10.574-21.59 15.479-.925.644-2.062.845-2.98 1.496-11.37 7.983-22.515 15.98-33.984 23.906l-1.928-.924s18.588-14.04 37.176-27.041c7.43-5.206 14.916-10.532 21.315-14.935 12.296-8.463 20.933-13.66 36.28-15.1l1.229 3.2z" fill="#fff"/><path d="M131.854 89.2a57.697 57.697 0 00-6.138.573c-11.843 2.148-19.683 6.673-29.38 13.346-7.062 4.839-14.59 10.574-21.59 15.479-.925.644-2.062.845-2.98 1.496-11.37 7.983-22.515 15.98-33.984 23.906l-1.928-.924s18.588-14.04 37.176-27.041c7.43-5.206 14.916-10.532 21.315-14.935 12.296-8.463 20.933-13.66 36.28-15.1l1.229 3.2z" fill="#CF2542"/><path d="M70.612 109l17.242 40.81a28.41 28.41 0 00-2.889 1.19l-17.112-40.526L70.612 109z" fill="#9F9EA0"/><path d="M70.612 109l17.242 40.81a28.41 28.41 0 00-2.889 1.19l-17.112-40.526L70.612 109z" fill="#fff"/><path d="M70.612 109l17.242 40.81a28.41 28.41 0 00-2.889 1.19l-17.112-40.526L70.612 109z" fill="#CF2542"/><path d="M137.663 103.719s-.389.91-.707 1.068c-8.484 4.299-12.061 9.617-14.74 13.4C111.979 132.627 99.197 151 99.197 151l-3.344-1.799s12.726-19.004 22.976-33.479c2.298-3.239 12.118-15.134 19.025-15.722l-.191 3.719z" fill="#9F9EA0"/><path d="M137.663 103.719s-.389.91-.707 1.068c-8.484 4.299-12.061 9.617-14.74 13.4C111.979 132.627 99.197 151 99.197 151l-3.344-1.799s12.726-19.004 22.976-33.479c2.298-3.239 12.118-15.134 19.025-15.722l-.191 3.719z" fill="#fff"/><path d="M137.663 103.719s-.389.91-.707 1.068c-8.484 4.299-12.061 9.617-14.74 13.4C111.979 132.627 99.197 151 99.197 151l-3.344-1.799s12.726-19.004 22.976-33.479c2.298-3.239 12.118-15.134 19.025-15.722l-.191 3.719z" fill="#CF2542"/><path d="M136.93 107c-2.514-7.133-5.507-14.508-8.076-21.614L132.701 84c.208.548 7.639 20.269 8.153 21.586L136.93 107z" fill="#9F9EA0"/><path d="M136.93 107c-2.514-7.133-5.507-14.508-8.076-21.614L132.701 84c.208.548 7.639 20.269 8.153 21.586L136.93 107z" fill="#fff"/><path d="M136.93 107c-2.514-7.133-5.507-14.508-8.076-21.614L132.701 84c.208.548 7.639 20.269 8.153 21.586L136.93 107z" fill="#CF2542"/><path d="M35.853 144l52.198 4.891 10.475-.285.328 2.203-.278 1.191-10.17-.242-52.553-5.776V144z" fill="#9F9EA0"/><path d="M35.853 144l52.198 4.891 10.475-.285.328 2.203-.278 1.191-10.17-.242-52.553-5.776V144z" fill="#fff"/><path d="M35.853 144l52.198 4.891 10.475-.285.328 2.203-.278 1.191-10.17-.242-52.553-5.776V144z" fill="#CF2542"/><path d="M59.867 98.345L62.588 98c.365.322.76.609 1.177.856.47.241 2.13 1.235 2.47 2.07.272.69 1.993 4.7 2.618 6.211l-2.108.863c-.68-1.553-3.096-6.86-3.32-7.143a4.955 4.955 0 00-1.293-1.435 8.29 8.29 0 00-2.279-1.035m-25 46.113a1.497 1.497 0 01.926-1.386 1.503 1.503 0 012.046 1.093 1.5 1.5 0 11-2.972.293zm43.093 4.5l36.899 1.872a1.065 1.065 0 01-.106 2.127L77.84 151.12a1.04 1.04 0 01-.985-1.095 1.04 1.04 0 011.091-.99" fill="#9F9EA0"/><path d="M77.946 149l36.899 1.872a1.065 1.065 0 01-.106 2.127L77.84 151.12a1.04 1.04 0 01-.985-1.095 1.04 1.04 0 011.091-.99" fill="#fff"/><path d="M77.946 149l36.899 1.872a1.065 1.065 0 01-.106 2.127L77.84 151.12a1.04 1.04 0 01-.985-1.095 1.04 1.04 0 011.091-.99" fill="#CF2542"/><path d="M118.531 149.132l-7.265 4.364 1.476 2.458 7.266-4.364-1.477-2.458z" fill="#9F9EA0"/><path d="M110.854 153.481l7.484-4.481 1.516 2.52-7.485 4.48-1.515-2.519z" fill="#fff"/><path d="M110.854 153.481l7.484-4.481 1.516 2.52-7.485 4.48-1.515-2.519z" fill="#CF2542"/><path d="M110.854 153.481l7.484-4.481 1.516 2.52-7.485 4.48-1.515-2.519z" stroke="#fff" stroke-width=".88" stroke-miterlimit="3.86"/><path d="M74.305 148.571l-.307 2.502 9.052 1.112.307-2.502-9.052-1.112z" fill="#9F9EA0"/><path d="M74.305 148.571l-.307 2.502 9.052 1.112.307-2.502-9.052-1.112z" fill="#fff"/><path d="M128.241 84l-1.387-5.936L129.505 77l2.349 5.543L128.241 84z" fill="#9F9EA0"/><path d="M128.241 84l-1.387-5.936L129.505 77l2.349 5.543L128.241 84z" fill="#fff"/><path d="M128.241 84l-1.387-5.936L129.505 77l2.349 5.543L128.241 84z" fill="#CF2542"/><path d="M141.348 107l.792 2.286 18.714 34.013-1.427.701-19.634-31.994a40.291 40.291 0 01-1.939-3.772l3.494-1.234z" fill="#9F9EA0"/><path d="M141.348 107l.792 2.286 18.714 34.013-1.427.701-19.634-31.994a40.291 40.291 0 01-1.939-3.772l3.494-1.234z" fill="#fff"/><path d="M141.348 107l.792 2.286 18.714 34.013-1.427.701-19.634-31.994a40.291 40.291 0 01-1.939-3.772l3.494-1.234z" fill="#CF2542"/><path d="M94.853 151.5c0-.495.118-.979.338-1.39.22-.411.533-.731.898-.92a1.632 1.632 0 011.157-.141 1.92 1.92 0 011.024.686c.28.35.47.796.546 1.282.076.485.036.988-.117 1.445-.152.457-.41.847-.739 1.12-.33.274-.717.42-1.113.418-.262 0-.522-.065-.764-.19a2.04 2.04 0 01-.648-.543 2.607 2.607 0 01-.431-.811 3.03 3.03 0 01-.15-.956z" fill="#9F9EA0"/><path d="M94 151.255a2.256 2.256 0 111.391 2.085 2.254 2.254 0 01-1.221-1.221 2.25 2.25 0 01-.17-.864z" fill="#9F9EA0"/><path d="M94 151.255a2.256 2.256 0 111.391 2.085 2.254 2.254 0 01-1.221-1.221 2.25 2.25 0 01-.17-.864z" fill="#fff"/><path d="M94 151.338a2.333 2.333 0 012.784-2.294 2.33 2.33 0 011.699 3.182 2.335 2.335 0 01-3.802.755 2.324 2.324 0 01-.681-1.643v0z" stroke="#fff" stroke-width=".62" stroke-miterlimit="3.86"/><path d="M95.028 151.799a1.51 1.51 0 112.966-.578 1.51 1.51 0 01-2.966.578z" fill="#9F9EA0"/><path d="M95.028 151.799a1.51 1.51 0 112.966-.578 1.51 1.51 0 01-2.966.578z" fill="#fff"/><path d="M95.028 151.799a1.51 1.51 0 112.966-.578 1.51 1.51 0 01-2.966.578z" fill="#CF2542"/><path d="M126.231 77c-.07-.225-.266-.815-.349-1.167-.084-.351-.817-1.525-.977-1.904-.161-.38 0-.597 1.298-1.195 1.298-.597 1.947-.218 1.947-.218a26.014 26.014 0 002.54-2.108c.432-.541.111-1.581 1.674-2.235 2.324-.97 3.49 2.453 3.49 2.453l-2.052 1.904a5.16 5.16 0 00-2.645 1.139 5.885 5.885 0 00-1.737 2.186L126.231 77z" fill="#9F9EA0"/><path d="M126.231 77c-.07-.225-.266-.815-.349-1.167-.084-.351-.817-1.525-.977-1.904-.161-.38 0-.597 1.298-1.195 1.298-.597 1.947-.218 1.947-.218a26.014 26.014 0 002.54-2.108c.432-.541.111-1.581 1.674-2.235 2.324-.97 3.49 2.453 3.49 2.453l-2.052 1.904a5.16 5.16 0 00-2.645 1.139 5.885 5.885 0 00-1.737 2.186L126.231 77z" fill="#fff"/><path d="M126.231 77c-.07-.225-.266-.815-.349-1.167-.084-.351-.817-1.525-.977-1.904-.161-.38 0-.597 1.298-1.195 1.298-.597 1.947-.218 1.947-.218a26.014 26.014 0 002.54-2.108c.432-.541.111-1.581 1.674-2.235 2.324-.97 3.49 2.453 3.49 2.453l-2.052 1.904a5.16 5.16 0 00-2.645 1.139 5.885 5.885 0 00-1.737 2.186L126.231 77z" fill="#CF2542"/><path d="M134.251 70.84c-1.29.547-1.624-.489-1.624-.489s-4.35-7.803-4.872-8.945c-.522-1.143-.899-1.1-1.24-1.1-.341 0-4.771.546-5.336.546-.566 0-.725-.29-1.117-.93a1.06 1.06 0 010-1.262s5.837-.66 6.12-.66a3.234 3.234 0 011.524.354c.469.24.87.592 1.165 1.023.341.425 4.597 7.945 5.438 9.158.841 1.213.617 2.022-.058 2.306z" fill="#9F9EA0"/><path d="M134.251 70.84c-1.29.547-1.624-.489-1.624-.489s-4.35-7.803-4.872-8.945c-.522-1.143-.899-1.1-1.24-1.1-.341 0-4.771.546-5.336.546-.566 0-.725-.29-1.117-.93a1.06 1.06 0 010-1.262s5.837-.66 6.12-.66a3.234 3.234 0 011.524.354c.469.24.87.592 1.165 1.023.341.425 4.597 7.945 5.438 9.158.841 1.213.617 2.022-.058 2.306z" fill="#fff"/><path d="M134.251 70.84c-1.29.547-1.624-.489-1.624-.489s-4.35-7.803-4.872-8.945c-.522-1.143-.899-1.1-1.24-1.1-.341 0-4.771.546-5.336.546-.566 0-.725-.29-1.117-.93a1.06 1.06 0 010-1.262s5.837-.66 6.12-.66a3.234 3.234 0 011.524.354c.469.24.87.592 1.165 1.023.341.425 4.597 7.945 5.438 9.158.841 1.213.617 2.022-.058 2.306z" fill="#CF2542"/><path d="M124.873 58a1.9 1.9 0 01.59.492c.157.2.268.428.326.67.354 1.627-.856 2.01-.856 2.01s-4.118.744-4.746.792c-.474.09-.968.009-1.38-.228a1.777 1.777 0 01-.834-1.043c-.457-1.531.51-2.01.975-2.119.464-.11 4.914-.526 5.903-.574" fill="#9F9EA0"/><path d="M124.873 58a1.9 1.9 0 01.59.492c.157.2.268.428.326.67.354 1.627-.856 2.01-.856 2.01s-4.118.744-4.746.792c-.474.09-.968.009-1.38-.228a1.777 1.777 0 01-.834-1.043c-.457-1.531.51-2.01.975-2.119.464-.11 4.914-.526 5.903-.574" fill="#fff"/><path d="M124.873 58a1.9 1.9 0 01.59.492c.157.2.268.428.326.67.354 1.627-.856 2.01-.856 2.01s-4.118.744-4.746.792c-.474.09-.968.009-1.38-.228a1.777 1.777 0 01-.834-1.043c-.457-1.531.51-2.01.975-2.119.464-.11 4.914-.526 5.903-.574" fill="#CF2542"/><path d="M36.353 109a35.498 35.498 0 0125.103 60.602A35.5 35.5 0 1136.353 109zm0 2.825A32.66 32.66 0 0013.26 167.58a32.657 32.657 0 0050.25-4.949 32.659 32.659 0 00-27.156-50.806z" fill="#9F9EA0"/><path d="M36.353 109a35.498 35.498 0 0125.103 60.602A35.5 35.5 0 1136.353 109zm0 2.825A32.66 32.66 0 0013.26 167.58a32.657 32.657 0 0050.25-4.949 32.659 32.659 0 00-27.156-50.806z" fill="#fff"/><path d="M36.353 109a35.498 35.498 0 0125.103 60.602A35.5 35.5 0 1136.353 109zm0 2.825A32.66 32.66 0 0013.26 167.58a32.657 32.657 0 0050.25-4.949 32.659 32.659 0 00-27.156-50.806z" fill="#CF2542"/><path d="M160.353 109a35.498 35.498 0 0134.818 42.426 35.504 35.504 0 01-48.403 25.872A35.5 35.5 0 01160.353 109zm0 2.825a32.66 32.66 0 10.002 65.32 32.66 32.66 0 00-.002-65.32z" fill="#9F9EA0"/><path d="M160.353 109a35.498 35.498 0 0134.818 42.426 35.504 35.504 0 01-48.403 25.872A35.5 35.5 0 01160.353 109zm0 2.825a32.66 32.66 0 10.002 65.32 32.66 32.66 0 00-.002-65.32z" fill="#fff"/><path d="M160.353 109a35.498 35.498 0 0134.818 42.426 35.504 35.504 0 01-48.403 25.872A35.5 35.5 0 01160.353 109zm0 2.825a32.66 32.66 0 10.002 65.32 32.66 32.66 0 00-.002-65.32z" fill="#CF2542"/><path d="M159 146.014a2.006 2.006 0 111.239 1.849 2.005 2.005 0 01-1.239-1.849z" fill="#9F9EA0"/><path d="M159 146.014a2.006 2.006 0 111.239 1.849 2.005 2.005 0 01-1.239-1.849z" fill="#fff"/><path d="M159 146.014a2.006 2.006 0 111.239 1.849 2.005 2.005 0 01-1.239-1.849z" fill="#CF2542"/><path d="M69.932 108.1l-3.165 1.278a.418.418 0 00-.23.544l.249.617c.086.214.33.317.543.231l3.165-1.278a.418.418 0 00.23-.544l-.249-.618a.418.418 0 00-.543-.23z" fill="#9F9EA0"/><path d="M69.932 108.1l-3.165 1.278a.418.418 0 00-.23.544l.249.617c.086.214.33.317.543.231l3.165-1.278a.418.418 0 00.23-.544l-.249-.618a.418.418 0 00-.543-.23z" fill="#CF2542"/><path d="M37.853 158a2 2 0 111.993 2 2.003 2.003 0 01-1.412-.586 2.001 2.001 0 01-.58-1.414z" fill="#9F9EA0"/><path d="M37.853 158a2 2 0 111.993 2 2.003 2.003 0 01-1.412-.586 2.001 2.001 0 01-.58-1.414z" fill="#fff"/><path d="M37.853 158a2 2 0 111.993 2 2.003 2.003 0 01-1.412-.586 2.001 2.001 0 01-.58-1.414z" fill="#CF2542"/><path d="M33.853 144.007a2.002 2.002 0 012.389-1.969 2.002 2.002 0 01.718 3.628 2.005 2.005 0 01-2.955-.896 1.993 1.993 0 01-.152-.763z" fill="#9F9EA0"/><path d="M33.853 144.007a2.002 2.002 0 012.389-1.969 2.002 2.002 0 01.718 3.628 2.005 2.005 0 01-2.955-.896 1.993 1.993 0 01-.152-.763z" fill="#fff"/><path d="M33.853 144.007a2.002 2.002 0 012.389-1.969 2.002 2.002 0 01.718 3.628 2.005 2.005 0 01-2.955-.896 1.993 1.993 0 01-.152-.763z" fill="#CF2542"/><path d="M33.853 144a1.998 1.998 0 013.415-1.414A2.001 2.001 0 0135.853 146a2 2 0 01-2-2v0z" stroke="#fff" stroke-width=".7" stroke-miterlimit="3.86"/><path d="M38.458 147.778c.564.545 4.395 4.585 4.395 4.585L41.557 154l-6.704-6.974a6.378 6.378 0 013.586.737" fill="#9F9EA0"/><path d="M38.458 147.778c.564.545 4.395 4.585 4.395 4.585L41.557 154l-6.704-6.974a6.378 6.378 0 013.586.737" fill="#fff"/><path d="M38.458 147.778c.564.545 4.395 4.585 4.395 4.585L41.557 154l-6.704-6.974a6.378 6.378 0 013.586.737" fill="#CF2542"/><path d="M94.89 142.195a10.001 10.001 0 0111.963 9.823 9.993 9.993 0 01-6.209 9.236 10.004 10.004 0 01-10.904-2.226 10 10 0 015.15-16.833zm.242 1.25a8.688 8.688 0 00-6.853 6.802 8.692 8.692 0 008.48 10.422 8.694 8.694 0 007.289-13.488 8.7 8.7 0 00-8.916-3.736z" fill="#9F9EA0"/><path d="M94.89 142.195a10.001 10.001 0 0111.963 9.823 9.993 9.993 0 01-6.209 9.236 10.004 10.004 0 01-10.904-2.226 10 10 0 015.15-16.833zm.242 1.25a8.688 8.688 0 00-6.853 6.802 8.692 8.692 0 008.48 10.422 8.694 8.694 0 007.289-13.488 8.7 8.7 0 00-8.916-3.736z" fill="#fff"/><path d="M94.89 142.195a10.001 10.001 0 0111.963 9.823 9.993 9.993 0 01-6.209 9.236 10.004 10.004 0 01-10.904-2.226 10 10 0 015.15-16.833zm.242 1.25a8.688 8.688 0 00-6.853 6.802 8.692 8.692 0 008.48 10.422 8.694 8.694 0 007.289-13.488 8.7 8.7 0 00-8.916-3.736z" fill="#CF2542"/><path d="M93.853 161l-54.688-1.774-.553-2.371 4.142-4.13-7.951-5.882s-2.414-1.171-1.87-3.505a2.994 2.994 0 011.15-1.782 2.85 2.85 0 012.016-.537l28.959 1.112m27.939.4l-6.84-.109" stroke="#9F9EA0" stroke-width=".9" stroke-linecap="round" stroke-linejoin="round"/><path d="M93.853 161l-54.688-1.774-.553-2.371 4.142-4.13-7.951-5.882s-2.414-1.171-1.87-3.505a2.994 2.994 0 011.15-1.782 2.85 2.85 0 012.016-.537l28.959 1.112m27.939.4l-6.84-.109" stroke="#fff" stroke-width=".9" stroke-linecap="round" stroke-linejoin="round"/><path d="M93.853 161l-54.688-1.774-.553-2.371 4.142-4.13-7.951-5.882s-2.414-1.171-1.87-3.505a2.994 2.994 0 011.15-1.782 2.85 2.85 0 012.016-.537l28.959 1.112m27.939.4l-6.84-.109" stroke="#CF2542" stroke-width=".9" stroke-linecap="round" stroke-linejoin="round"/><path d="M17.854 180h166" stroke="#9F9EA0" stroke-width=".63" stroke-miterlimit="3.86"/><path d="M43.262 91c1.57 0 2.104.419 8.801.296s15.428 2.463 10.19 2.607c-5.905.166-2.21.946-6.494 2.52-3.577 1.308-3.43 1.922-5.077 1.38 0 0-2.181-2.889-8.816-4.449-1.465-.339-1.03-.917-.603-1.567.428-.65 1.53-.773 2-.787z" fill="#9F9EA0"/><path d="M43.262 91c1.57 0 2.104.419 8.801.296s15.428 2.463 10.19 2.607c-5.905.166-2.21.946-6.494 2.52-3.577 1.308-3.43 1.922-5.077 1.38 0 0-2.181-2.889-8.816-4.449-1.465-.339-1.03-.917-.603-1.567.428-.65 1.53-.773 2-.787z" fill="#fff"/><path d="M43.262 91c1.57 0 2.104.419 8.801.296s15.428 2.463 10.19 2.607c-5.905.166-2.21.946-6.494 2.52-3.577 1.308-3.43 1.922-5.077 1.38 0 0-2.181-2.889-8.816-4.449-1.465-.339-1.03-.917-.603-1.567.428-.65 1.53-.773 2-.787z" fill="#CF2542"/><path d="M62.237 24.02c1.555 3.152-1.263 6.505-1.31 6.595-.533 0 1.93 1.081 4.53 1.358 2.047.225 2.374-1.03 2.374-1.03a11.369 11.369 0 00.983-5.656c-3.207-.212-5.936-.58-6.577-1.287" fill="#47545B"/><path d="M62.232 23c1.561 3.552-1.258 7.341-1.306 7.434-.531 0 1.932 1.22 4.53 1.536 2.018.251 2.374-1.162 2.374-1.162.81-2.01 1.148-4.2.983-6.38-3.21-.244-5.942-.624-6.581-1.428z" stroke="#fff" stroke-width=".46" stroke-miterlimit="3.86"/><path d="M61.714 2.415c-1.672.636-8.305 4.665-4.904 13.43 3.401 8.763 11.452 12.57 22 8.56 2.95-1.116 2.718-11.103-.775-17.87-4.163-8.065-13.287-5.272-16.321-4.12z" fill="#47545B"/><path d="M61.724 2.417c-1.673.64-8.308 4.665-4.92 13.424 3.387 8.76 11.45 12.576 22.007 8.565 2.945-1.12 2.72-11.123-.773-17.873-4.154-8.064-13.278-5.27-16.314-4.116z" stroke="#fff" stroke-width=".46" stroke-miterlimit="3.86"/><path d="M73.49 129.629s4.56 36.369 4.961 38.565c.804 4.441.464 5.217-1.573 5.742a2.873 2.873 0 01-2.055-.33 2.919 2.919 0 01-1.305-1.635c-1.22-3.812-2.633-9.953-3.666-14.072-.873-3.497-4.29-9.169-5.141-12.065-2.287-7.812.242-16.541 4.74-16.785 4.233-.259 4.039.601 4.039.601" fill="#47545B"/><path d="M74.126 129.648s4.875 36.359 5.293 38.548c.866 4.442.5 5.216-1.667 5.739a3.227 3.227 0 01-2.187-.327 2.97 2.97 0 01-1.395-1.632c-1.307-3.815-2.82-9.951-3.921-14.065-.925-3.487-4.567-9.17-5.477-12.064-2.445-7.81.25-16.534 5.044-16.799 4.515-.258 4.31.6 4.31.6z" stroke="#fff" stroke-width=".46" stroke-miterlimit="3.86"/><path d="M79.433 173s6.346 3.091 6.93 3.198c.582.108 5.104.785 5.104.785.452-.074.549 2.923.068 3.017h-19.21a5.142 5.142 0 01-.295-3.487c.24-.958 2.353-2.816 2.353-2.816l5.05-.697z" fill="#47545B"/><path d="M79.45 173s6.337 3.093 6.923 3.192c.586.099 5.097.788 5.097.788.45-.079.545 2.927.062 3.02h-19.21a5.193 5.193 0 01-.293-3.497c.239-.96 2.358-2.821 2.358-2.821L79.45 173z" stroke="#fff" stroke-width=".46" stroke-miterlimit="3.86"/><path d="M73.885 172.004c.084-.684.34-1.325.735-1.84a2.962 2.962 0 011.487-1.054 2.592 2.592 0 011.739.087 3.066 3.066 0 011.404 1.198c.357.552.565 1.216.599 1.906a3.971 3.971 0 01-.41 1.973 3.243 3.243 0 01-1.279 1.377 2.625 2.625 0 01-1.718.316 2.736 2.736 0 01-1.11-.448 3.207 3.207 0 01-.876-.912 3.763 3.763 0 01-.51-1.235 4.056 4.056 0 01-.061-1.368z" fill="#47545B"/><path d="M73.883 172.02a3.784 3.784 0 01.73-1.846 2.96 2.96 0 011.486-1.061 2.593 2.593 0 011.74.081 3.08 3.08 0 011.41 1.197 3.88 3.88 0 01.6 1.909 3.976 3.976 0 01-.41 1.976 3.235 3.235 0 01-1.282 1.377 2.626 2.626 0 01-1.722.313 2.715 2.715 0 01-1.104-.448 3.214 3.214 0 01-.873-.907 3.775 3.775 0 01-.509-1.229 4.06 4.06 0 01-.066-1.362v0z" stroke="#fff" stroke-width=".46" stroke-miterlimit="3.86"/><path d="M48.772 68.055c3.207-.403 12.691 1.547 12.691 1.547 2.256 1.791 2.334 6.82 2.39 10.836-.524 5.202-1.028 18.196-14.832 13.591-10.91-5.504-4.966-19.426-.249-25.974z" fill="#47545B"/><path d="M48.748 68.054c3.204-.4 12.706 1.547 12.706 1.547 2.265 1.79 2.336 6.817 2.4 10.834-.53 5.198-1.031 18.18-14.824 13.605-10.948-5.528-4.934-19.44-.282-25.986z" stroke="#fff" stroke-width=".46" stroke-miterlimit="3.86"/><path d="M59.374 30.137c-15.55 3.843-8.981 34.799-12.52 41.528 8.015 2.245 10.855 3.561 16.52 5.335 1.764-10.72 7.905-21.292 9.276-26.416 1.658-7.975 1.783-9.854-.77-14.71-3.44-6.525-11.597-5.983-12.506-5.758" fill="#47545B"/><path d="M59.388 30.115c-15.55 3.847-8.976 34.797-12.535 41.543C54.87 73.911 57.718 75.224 63.378 77c1.762-10.72 7.904-21.29 9.276-26.408 1.65-7.982 1.783-9.87-.78-14.742-3.426-6.493-11.58-5.96-12.486-5.735z" stroke="#fff" stroke-width=".46" stroke-miterlimit="3.86"/><path d="M61.181 82.749c7.755 16.052 11 36.04 11.619 42.953.404 4.498-1.532 4-3.78 4.274-2.743.332-4.295-2.883-5.465-4.678-3.592-5.5-9.432-13.818-16.08-31.067-1.219-3.164-3.21-7.929.591-13.695 3.48-5.262 11.598-1.24 13.115 2.206" fill="#47545B"/><path d="M61.177 82.743c7.76 16.056 11.006 36.076 11.623 42.96.402 4.496-1.526 4-3.78 4.273-2.774.331-4.292-2.877-5.464-4.683-3.586-5.496-9.432-13.819-16.083-31.076-1.214-3.158-3.211-7.913.596-13.668 3.468-5.28 11.596-1.259 13.108 2.194z" stroke="#fff" stroke-width=".46" stroke-miterlimit="3.86"/><path d="M65.011 127.326a4.502 4.502 0 013.763-3.288 4.5 4.5 0 11-.582 8.809 4.494 4.494 0 01-3.181-5.521z" fill="#47545B"/><path d="M65.006 127.338a4.503 4.503 0 013.759-3.299 4.493 4.493 0 014.486 2.211 4.5 4.5 0 11-8.245 1.088z" stroke="#fff" stroke-width=".46" stroke-miterlimit="3.86"/><path d="M82.99 57.312c6.194-1.744 29.6-1.246 29.6-1.246 2.473.68.875 3.232-1.037 4.032-3.986 1.684-16.59 4.418-24.8 4.878-5.353.302-6.775-2.363-6.887-4.153-.14-2.152.883-2.884 3.125-3.511z" fill="#47545B"/><path d="M82.999 57.321c6.186-1.738 29.59-1.26 29.59-1.26 2.472.678.88 3.223-1.033 4.028-3.987 1.68-16.59 4.418-24.808 4.888-5.348.298-6.765-2.358-6.877-4.149-.168-2.149.88-2.88 3.128-3.507z" stroke="#fff" stroke-width=".46" stroke-miterlimit="3.86"/><path d="M64.079 35.68c7.192 9.234 9.2 13.087 18.802 21.86 2.679 2.828 2.16 4.44 1.176 5.578-1.204 1.414-3.897 1.153-7.393-.968-12.108-7.607-19.556-20.778-19.556-20.778a4.596 4.596 0 01-1.254-3.1 4.602 4.602 0 011.17-3.136c1.627-1.88 5.455-1.237 7.055.545z" fill="#47545B"/><path d="M64.08 35.69c7.189 9.24 9.203 13.095 18.8 21.848 2.676 2.819 2.166 4.44 1.172 5.582-1.2 1.41-3.89 1.155-7.382-.973-12.114-7.611-19.558-20.79-19.558-20.79a4.603 4.603 0 01-1.258-3.104 4.609 4.609 0 011.168-3.14c1.628-1.854 5.457-1.205 7.058.578z" stroke="#fff" stroke-width=".46" stroke-miterlimit="3.86"/><path d="M110.975 59.92s-.506-3.993.548-4.538a13.074 13.074 0 018.564-1.096s4.04 4.984 3.752 5.188c-7.352 5.4-12.864.462-12.864.462" fill="#47545B"/><path d="M110.972 59.932s-.499-3.99.55-4.54a12.97 12.97 0 018.568-1.102s4.035 4.973 3.749 5.21c-7.362 5.36-12.867.432-12.867.432z" stroke="#fff" stroke-width=".46" stroke-miterlimit="3.86"/><path d="M117.908 54.027c-.449-.072 1.922-.072 5.036.952 1.023.334 5.889 8.553 3.011 7.994a8.345 8.345 0 01-5.293-3.481s-3.07-5.566-2.754-5.45" fill="#47545B"/><path d="M117.907 54.028c-.445-.072 1.927-.08 5.052.947 1.022.338 5.839 8.564 3.022 7.997a8.428 8.428 0 01-5.314-3.489s-3.066-5.577-2.76-5.455z" stroke="#fff" stroke-width=".46" stroke-miterlimit="3.86"/><path d="M58.009 42.34a4.5 4.5 0 114.689-7.68 4.5 4.5 0 01-4.69 7.68z" fill="#47545B"/><path d="M58.035 42.359a4.501 4.501 0 116.177-1.541 4.507 4.507 0 01-6.177 1.54v0z" stroke="#fff" stroke-width=".46" stroke-miterlimit="3.86"/><path d="M79.909 61.572a3 3 0 115.89-1.144 3 3 0 01-5.89 1.144z" fill="#47545B"/><path d="M78.918 61.168a3.499 3.499 0 016.674-1.995 3.499 3.499 0 01-2.57 4.761 3.493 3.493 0 01-4.104-2.766v0z" stroke="#fff" stroke-width=".46" stroke-miterlimit="3.86"/></svg>